<?xml version="1.0" encoding="utf-8"?>
<!-- Generator: Adobe Illustrator 16.0.4, SVG Export Plug-In . SVG Version: 6.00 Build 0)  -->
<!DOCTYPE svg PUBLIC "-//W3C//DTD SVG 1.1//EN" "http://www.w3.org/Graphics/SVG/1.1/DTD/svg11.dtd">
<svg version="1.1" xmlns="http://www.w3.org/2000/svg" xmlns:xlink="http://www.w3.org/1999/xlink" x="0px" y="0px" width="500px"
	 height="500px" viewBox="0 0 500 500" enable-background="new 0 0 500 500" xml:space="preserve">
<g id="Layer_1" display="none">
	<rect display="inline" width="500" height="500"/>
</g>
<g id="Layer_2">
	<g>
		<polyline fill="none" stroke="#000000" stroke-width="4.8" stroke-miterlimit="10" points="341.939,163.139 247.72,163.139 
			246.876,163.139 158.423,163.139 		"/>
		<polyline fill="none" stroke="#000000" stroke-width="4.8" stroke-miterlimit="10" points="300.502,364.005 248.822,364.005 
			248.376,364.005 199.884,364.005 		"/>
		
			<polyline fill="none" stroke="#000000" stroke-width="4.8" stroke-linecap="round" stroke-linejoin="round" stroke-miterlimit="10" points="
			304.533,379.239 248.705,384.044 248.212,384.067 195.853,388.567 		"/>
		
			<polyline fill="none" stroke="#000000" stroke-width="4.8" stroke-linecap="round" stroke-linejoin="round" stroke-miterlimit="10" points="
			305.307,395.106 249.525,399.888 249.033,399.958 196.673,404.435 		"/>
		
			<polyline fill="none" stroke="#000000" stroke-width="4.8" stroke-linecap="round" stroke-linejoin="round" stroke-miterlimit="10" points="
			304.533,410.974 248.705,415.755 248.212,415.802 195.853,420.302 		"/>
		<path fill="none" stroke="#000000" stroke-width="4.8" stroke-miterlimit="10" d="M342.314,163.139
			c0,0,12.234-21.234,26.039-61.078c4.781-14.344,6.398-32.953-19.664-45.703c-22.734-11.133-69.75-16.969-97.922-16.477
			c-28.219-0.492-75.234,5.344-97.969,16.477c-26.062,12.75-24.469,31.359-19.688,45.703c13.828,39.844,26.062,61.078,26.062,61.078
			c29.766,93.003,27.633,183.851,27.633,183.851l14.883,17.016c0,0,0,55.781,0,63.211s11.672,12.773,20.695,14.883
			c1.594,3.188,6.398,8.508,11.695,14.344c7.125,2.391,26.204,2.391,33.329,0c5.297-5.836,10.078-11.156,11.672-14.344
			c9.047-2.109,20.742-7.453,20.742-14.883s0-63.211,0-63.211l14.883-17.016C314.705,346.989,312.549,256.142,342.314,163.139z"/>
	</g>
</g>
</svg>
