<?xml version="1.0" encoding="utf-8"?>
<!-- Generator: Adobe Illustrator 16.0.4, SVG Export Plug-In . SVG Version: 6.00 Build 0)  -->
<!DOCTYPE svg PUBLIC "-//W3C//DTD SVG 1.1//EN" "http://www.w3.org/Graphics/SVG/1.1/DTD/svg11.dtd">
<svg version="1.1" xmlns="http://www.w3.org/2000/svg" xmlns:xlink="http://www.w3.org/1999/xlink" x="0px" y="0px" width="500px"
	 height="500px" viewBox="0 0 500 500" enable-background="new 0 0 500 500" xml:space="preserve">
<g id="Layer_1" display="none">
	<rect display="inline" width="500" height="500"/>
</g>
<g id="Layer_2">
	<g>
		<path d="M249.107,398.614c-17.93,0-28.664-0.66-35.625-1.5c1.727,21.023,5.914,46.168,12.234,52.379
			c8.875,8.871,14.023,8.668,21.031,8.305l4.451-0.137l2.555,0.047c7.734-0.207,13.375,0.09,23.391-8.535
			c4.594-4.164,8.914-25.551,12.102-52.059c-6.828,0.84-16.43,1.5-33.312,1.5H249.107z"/>
		<path d="M303.581,186.38c18.883-1.844,34.086-3.914,40.094-4.824l0.039-0.09l1.961-0.363c0.82-0.207,20.383-4.484,29.672-29.898
			c6.547-18.023,9.328-31.059,10.461-38H115.865c1.188,6.941,3.914,19.977,10.516,38c9.281,25.414,28.852,29.691,29.672,29.941
			l1.82,0.32l0.5,0.613c7.32,1.047,20.43,2.73,36.539,4.301H303.581z"/>
		<path d="M167.287,201.646c7.781,10.809,19.25,27.965,27.078,46.395c13.469,31.352,16.836,107.957,16.977,111.211
			c0.359,4.051,1.82,9.719,3.273,10.992c1.594,0.66,12.969,1.75,32.719,1.75h4.185h4.141c18.93,0,29.812-1.09,31.945-2.094
			c0.914-0.93,2.414-6.598,2.781-10.828c0.086-3.074,3.5-79.68,16.922-111.031c7.969-18.656,19.664-36.109,27.445-46.871
			c-18.43,2.457-52.883,6.371-85.552,6.371C218.669,207.54,186.404,204.103,167.287,201.646z"/>
		<path d="M250.839,36.001c-91.646,0-122.006,25.555-131.881,40.684c-3.641,5.621-5.188,10.605-5.914,14.246h276.63
			c-0.773-3.641-2.406-8.625-6.094-14.062C373.386,61.646,342.581,36.001,250.839,36.001z"/>
		<path d="M249.201,188.724c22.068,0,44.779-1.594,64.302-3.391H184.904C204.466,187.13,227.177,188.724,249.201,188.724z"/>
	</g>
</g>
</svg>
