<?xml version="1.0" encoding="utf-8"?>
<!-- Generator: Adobe Illustrator 16.0.4, SVG Export Plug-In . SVG Version: 6.00 Build 0)  -->
<!DOCTYPE svg PUBLIC "-//W3C//DTD SVG 1.1//EN" "http://www.w3.org/Graphics/SVG/1.1/DTD/svg11.dtd">
<svg version="1.1" xmlns="http://www.w3.org/2000/svg" xmlns:xlink="http://www.w3.org/1999/xlink" x="0px" y="0px" width="500px"
	 height="500px" viewBox="0 0 500 500" enable-background="new 0 0 500 500" xml:space="preserve">
<g id="Layer_1" display="none">
	<rect display="inline" width="500" height="500"/>
</g>
<g id="Layer_2">
	<g>
		<path fill="none" stroke="#000000" stroke-width="4.8" stroke-miterlimit="10" d="M276.748,445.245c0,0-4.406,6.281-6,8.625
			c-1.57,2.344-3.047,9.586-20.602,9h0.023c-17.555,0.586-18.984-6.656-20.578-9c-1.547-2.344-7.078-8.273-7.078-8.273"/>
		<path fill="none" stroke="#000000" stroke-width="4.8" stroke-miterlimit="10" d="M250.17,377.042c0,0,36.844,0.422,40.969-3.188
			c4.383-3.844,5.25-15.539,5.25-15.539s3.516-82.336,17.391-114.746c12.656-29.695,36.188-58.852,36.188-58.852
			s24.234-4.711,35.25-34.945c11.016-30.211,12.094-47.367,12.094-47.367H247.709H101.436c0,0,1.125,17.156,12.117,47.367
			c11.016,30.234,35.297,34.945,35.297,34.945s23.484,29.156,36.164,58.852c13.875,32.41,17.391,114.746,17.391,114.746
			s0.891,11.695,5.297,15.539C211.779,377.464,250.17,377.042,250.17,377.042z"/>
		<path fill="none" stroke="#000000" stroke-width="4.8" stroke-miterlimit="10" d="M98.881,87.405h302.273
			c0,0,8.531-54.352-151.734-54.352S98.881,87.405,98.881,87.405z"/>
		<polyline fill="none" stroke="#000000" stroke-width="4.8" stroke-miterlimit="10" points="113.951,60.265 246.654,60.265 
			385.381,60.265 		"/>
		<path fill="none" stroke="#000000" stroke-width="4.8" stroke-miterlimit="10" d="M148.029,184.858
			c0,0,52.711,8.648,101.367,8.648c48.633,0,101.391-8.648,101.391-8.648"/>
		<path fill="none" stroke="#000000" stroke-width="4.8" stroke-miterlimit="10" d="M207.396,386.815"/>
		<path fill="none" stroke="#000000" stroke-width="4.8" stroke-miterlimit="10" d="M206.646,386.136"/>
		<path fill="none" stroke="#000000" stroke-width="4.8" stroke-miterlimit="10" d="M209.154,424.784
			c1.125,0.984,2.203,5.367,0.094,7.195c-2.133,1.758,0,3.164,0,3.164c0.117,1.992,18.914,2.414,41.953,0.938
			c21.609-1.383,39.258-4.008,41.273-5.977c0,0,1.875-2.578,0-3.797c-1.852-1.242-4.172-4.289-2.812-6.844"/>
		<path fill="none" stroke="#000000" stroke-width="4.8" stroke-miterlimit="10" d="M210.795,412.573
			c0.281,2.438,1.547,5.062-3.188,8.227c-2.344,1.523,0,3.164,0,3.164c4.734,2.344,18.891,2.438,41.953,0.938
			c21.562-1.383,39.258-3.984,41.297-5.953c0,0,1.828-2.578,0-3.797c-1.875-1.266-3.094-4.219-2.859-6.867"/>
		<path fill="none" stroke="#000000" stroke-width="4.8" stroke-miterlimit="10" d="M210.795,400.737
			c0.281,2.461,1.547,5.086-3.188,8.227c-2.344,1.523,0,3.188,0,3.188c4.734,2.32,18.891,2.391,41.953,0.938
			c21.562-1.406,39.258-4.008,41.297-6c0,0,1.828-2.531,0-3.773c-1.875-1.242-3.094-4.219-2.859-6.891"/>
		<path fill="none" stroke="#000000" stroke-width="4.8" stroke-miterlimit="10" d="M210.795,388.597
			c0.281,2.461,1.547,5.086-3.188,8.203c-2.344,1.523,0,3.211,0,3.211c4.734,2.297,18.891,2.438,41.953,0.938
			c21.562-1.406,39.258-3.984,41.297-5.977c0,0,1.828-2.555,0-3.82c-1.875-1.219-3.094-4.195-2.859-6.844"/>
		<path fill="none" stroke="#000000" stroke-width="4.8" stroke-miterlimit="10" d="M212.576,436.995c0,0,1.594,7.312,12.141,9.047
			c10.547,1.781,17.672,1.359,24.375,1.359s13.828,0.188,24.422-1.359c12.047-1.734,14.812-14.391,14.812-14.391"/>
		<path fill="none" stroke="#000000" stroke-width="4.8" stroke-miterlimit="10" d="M290.998,375.964c0,0,0,6.727-1.008,7.711
			c-1.008,1.031-3.352,1.242-3.352,1.242s-74.859,5.484-78.328,2.836c-2.062-1.523-1.758-11.789-1.758-11.789"/>
		
			<line fill="none" stroke="#000000" stroke-width="4.8" stroke-miterlimit="10" x1="137.436" y1="87.405" x2="143.365" y2="100.483"/>
		
			<line fill="none" stroke="#000000" stroke-width="4.8" stroke-miterlimit="10" x1="361.732" y1="87.405" x2="355.826" y2="100.483"/>
	</g>
</g>
</svg>
