<?xml version="1.0" encoding="utf-8"?>
<!-- Generator: Adobe Illustrator 16.0.4, SVG Export Plug-In . SVG Version: 6.00 Build 0)  -->
<!DOCTYPE svg PUBLIC "-//W3C//DTD SVG 1.1//EN" "http://www.w3.org/Graphics/SVG/1.1/DTD/svg11.dtd">
<svg version="1.1" xmlns="http://www.w3.org/2000/svg" xmlns:xlink="http://www.w3.org/1999/xlink" x="0px" y="0px" width="500px"
	 height="500px" viewBox="0 0 500 500" enable-background="new 0 0 500 500" xml:space="preserve">
<g id="Layer_1" display="none">
	<rect display="inline" width="500" height="500"/>
</g>
<g id="Layer_2">
	<g>
		
			<path fill="none" stroke="#000000" stroke-width="5.6615" stroke-linecap="round" stroke-linejoin="round" stroke-miterlimit="10" d="
			M283.47,24.121c75.743,19.755,139.4,69.514,177.438,135.823"/>
		
			<path fill="none" stroke="#000000" stroke-width="5.6615" stroke-linecap="round" stroke-linejoin="round" stroke-miterlimit="10" d="
			M281.521,65.533c57.867,16.161,106.332,54.935,135.23,106.205"/>
		
			<path fill="none" stroke="#000000" stroke-width="5.6615" stroke-linecap="round" stroke-linejoin="round" stroke-miterlimit="10" d="
			M288.007,110.205c37.409,14.651,68.885,41.152,89.767,74.876"/>
		<path d="M210.49,134.844c-93.069,0-168.516,75.449-168.516,168.51c0,93.064,75.446,168.514,168.516,168.514
			c93.071,0,168.555-75.449,168.555-168.514C379.045,210.293,303.562,134.844,210.49,134.844z M210.49,197.688
			c8.77,0,15.901,7.113,15.901,15.905c0,8.789-7.132,15.902-15.901,15.902c-8.771,0-15.89-7.113-15.89-15.902
			C194.601,204.801,201.72,197.688,210.49,197.688z M120.516,319.239c-8.771,0-15.884-7.115-15.884-15.885
			c0-8.791,7.113-15.922,15.884-15.922c8.776,0,15.907,7.131,15.907,15.922C136.423,312.124,129.292,319.239,120.516,319.239z
			 M152.325,261.283c-8.79,0-15.902-7.131-15.902-15.883c0-8.789,7.112-15.904,15.902-15.904c8.776,0,15.908,7.115,15.908,15.904
			C168.233,254.152,161.102,261.283,152.325,261.283z M210.49,345.407c-23.223,0-42.056-18.834-42.056-42.072
			c0-23.201,18.833-42.033,42.056-42.033c23.254,0,42.094,18.832,42.094,42.033C252.584,326.573,233.744,345.407,210.49,345.407z"/>
	</g>
</g>
</svg>
