<?xml version="1.0" encoding="UTF-8" standalone="no"?>
<!-- Generator: Adobe Illustrator 16.0.4, SVG Export Plug-In . SVG Version: 6.00 Build 0)  -->

<svg
   xmlns:dc="http://purl.org/dc/elements/1.1/"
   xmlns:cc="http://creativecommons.org/ns#"
   xmlns:rdf="http://www.w3.org/1999/02/22-rdf-syntax-ns#"
   xmlns:svg="http://www.w3.org/2000/svg"
   xmlns="http://www.w3.org/2000/svg"
   xmlns:sodipodi="http://sodipodi.sourceforge.net/DTD/sodipodi-0.dtd"
   xmlns:inkscape="http://www.inkscape.org/namespaces/inkscape"
   version="1.1"
   x="0px"
   y="0px"
   width="500px"
   height="500px"
   viewBox="0 0 500 500"
   enable-background="new 0 0 500 500"
   xml:space="preserve"
   id="svg4203"
   inkscape:version="0.91 r13725"
   sodipodi:docname="dimmer_outline_2.svg"><metadata
     id="metadata4227"><rdf:RDF><cc:Work
         rdf:about=""><dc:format>image/svg+xml</dc:format><dc:type
           rdf:resource="http://purl.org/dc/dcmitype/StillImage" /><dc:title></dc:title></cc:Work></rdf:RDF></metadata><defs
     id="defs4225" /><sodipodi:namedview
     pagecolor="#ffffff"
     bordercolor="#666666"
     borderopacity="1"
     objecttolerance="10"
     gridtolerance="10"
     guidetolerance="10"
     inkscape:pageopacity="0"
     inkscape:pageshadow="2"
     inkscape:window-width="2880"
     inkscape:window-height="1752"
     id="namedview4223"
     showgrid="false"
     inkscape:zoom="1.3350176"
     inkscape:cx="155.86391"
     inkscape:cy="257.849"
     inkscape:window-x="0"
     inkscape:window-y="48"
     inkscape:window-maximized="1"
     inkscape:current-layer="svg4203"><inkscape:grid
       type="xygrid"
       id="grid5483" /></sodipodi:namedview><g
     id="Layer_1"
     display="none"><rect
       display="inline"
       width="500"
       height="500"
       id="rect4206" /></g><path
     style="opacity:1;fill:#ffffff;fill-opacity:1;stroke:none;stroke-width:2;stroke-miterlimit:4;stroke-dasharray:none;stroke-opacity:1"
     d="m 204.25539,375.92433 0,-9.1759 46.44133,0 46.44134,0 0,5.22042 0,5.22043 -1.59174,0.21308 c -0.87546,0.11719 -18.44545,1.64601 -39.04443,3.39737 -20.59898,1.75137 -40.17012,3.43545 -43.49141,3.74241 -3.3213,0.30696 -6.64991,0.5581 -7.39691,0.5581 l -1.35818,0 0,-9.17591 z"
     id="path4809"
     inkscape:connector-curvature="0" /><path
     style="opacity:1;fill:#ffffff;fill-opacity:1;stroke:none;stroke-width:2;stroke-miterlimit:4;stroke-dasharray:none;stroke-opacity:1"
     d="m 204.25539,395.77426 c 0,-4.41398 0.0985,-5.43064 0.52613,-5.43064 0.28938,0 10.2752,-0.83766 22.19072,-1.86147 11.91552,-1.02381 31.60827,-2.70662 43.76167,-3.73958 12.1534,-1.03297 23.06618,-1.98149 24.25062,-2.10784 l 2.15353,-0.22972 0,5.46741 c 0,5.10027 -0.0473,5.46742 -0.7037,5.46742 -0.38704,0 -12.47957,1.01676 -26.8723,2.25947 -34.48572,2.97761 -65.04861,5.60559 -65.19182,5.60559 -0.0632,0 -0.11485,-2.44379 -0.11485,-5.43064 z"
     id="path4811"
     inkscape:connector-curvature="0" /><path
     style="opacity:1;fill:#ffffff;fill-opacity:1;stroke:none;stroke-width:2;stroke-miterlimit:4;stroke-dasharray:none;stroke-opacity:1"
     d="m 204.25539,411.70862 0,-5.2264 1.21721,-0.19383 c 0.66947,-0.10661 10.31822,-0.95832 21.44167,-1.8927 11.12344,-0.93437 30.92655,-2.62313 44.00691,-3.7528 13.08035,-1.12966 24.3302,-2.05523 24.99967,-2.05681 l 1.21721,-0.003 0,5.24338 c 0,3.43824 -0.13645,5.24338 -0.39634,5.24338 -0.21798,0 -5.23196,0.42046 -11.14217,0.93437 -12.63374,1.09853 -43.36714,3.75314 -64.99784,5.6142 -8.41566,0.72407 -15.53635,1.31649 -15.82376,1.31649 -0.4221,0 -0.52256,-1.00477 -0.52256,-5.22641 z"
     id="path4813"
     inkscape:connector-curvature="0" /><path
     style="opacity:1;fill:#ffffff;fill-opacity:1;stroke:none;stroke-width:2;stroke-miterlimit:4;stroke-dasharray:none;stroke-opacity:1"
     d="m 241.89534,455.28156 c -6.29502,-0.90283 -5.99951,-0.78648 -8.29722,-3.26667 -3.39313,-3.6626 -7.48439,-8.68516 -8.53487,-10.47767 -0.88809,-1.51542 -1.16651,-1.70034 -3.48957,-2.31771 -7.71227,-2.0496 -13.99696,-5.5836 -16.25138,-9.13846 -0.95022,-1.49834 -1.06691,-2.01955 -1.06691,-4.76554 l 0,-3.0832 1.96626,-0.2202 c 1.08145,-0.1211 7.86507,-0.72117 15.07471,-1.33347 7.20965,-0.61231 26.88325,-2.29499 43.71913,-3.73929 16.83588,-1.44431 30.95087,-2.62601 31.36663,-2.62601 0.73189,0 0.75594,0.22794 0.75594,7.16544 0,6.58545 -0.0626,7.26666 -0.7729,8.41601 -2.03968,3.30027 -8.52201,7.08421 -15.4612,9.02518 -3.45581,0.96663 -3.73059,1.11598 -4.37419,2.37756 -0.80973,1.5872 -3.07534,4.44373 -7.41177,9.34492 -2.9696,3.35635 -3.26774,3.58599 -5.26037,4.05171 -2.05899,0.48122 -19.45793,0.94658 -21.96229,0.5874 z"
     id="path4815"
     inkscape:connector-curvature="0" /><rect
     style="opacity:1;fill:none;fill-opacity:1;stroke:#000000;stroke-width:4;stroke-miterlimit:4;stroke-dasharray:none;stroke-opacity:1"
     id="rect5571"
     width="160"
     height="420"
     x="170"
     y="40"
     rx="5"
     ry="5" /><path
     inkscape:connector-curvature="0"
     id="path5577"
     d="m 168.07125,250 c 163.10844,0 163.10844,0 163.10844,0"
     style="fill:none;fill-rule:evenodd;stroke:#000000;stroke-width:4.17111921;stroke-linecap:butt;stroke-linejoin:miter;stroke-miterlimit:4;stroke-dasharray:none;stroke-opacity:1" /><path
     style="fill:none;fill-rule:evenodd;stroke:#000000;stroke-width:4.17111921;stroke-linecap:butt;stroke-linejoin:miter;stroke-miterlimit:4;stroke-dasharray:none;stroke-opacity:1"
     d="m 168.07125,174 c 163.10844,0 163.10844,0 163.10844,0"
     id="path5581"
     inkscape:connector-curvature="0" /><path
     style="fill:none;fill-rule:evenodd;stroke:#000000;stroke-width:4.17111921;stroke-linecap:butt;stroke-linejoin:miter;stroke-miterlimit:4;stroke-dasharray:none;stroke-opacity:1"
     d="m 168.07125,326 c 163.10844,0 163.10844,0 163.10844,0"
     id="path5583"
     inkscape:connector-curvature="0" /><path
     style="fill:none;fill-rule:evenodd;stroke:#000000;stroke-width:5;stroke-linecap:round;stroke-linejoin:miter;stroke-miterlimit:4;stroke-dasharray:none;stroke-opacity:1"
     d="m 250,95 c 0,30 0,30 0,30"
     id="path5585"
     inkscape:connector-curvature="0" /><circle
     style="opacity:1;fill:none;fill-opacity:1;stroke:#000000;stroke-width:5;stroke-miterlimit:4;stroke-dasharray:none;stroke-opacity:1"
     id="path5587"
     cx="250"
     cy="390"
     r="12.5" /><g
     id="g5624"><circle
       r="7.5"
       cy="210"
       cx="250"
       id="path5591"
       style="opacity:1;fill:#000000;fill-opacity:1;stroke:none;stroke-width:5;stroke-linecap:round;stroke-miterlimit:4;stroke-dasharray:none;stroke-opacity:1" /><path
       inkscape:connector-curvature="0"
       id="path5608"
       d="m 240,210 c -10,0 -10,0 -10,0"
       style="fill:none;fill-rule:evenodd;stroke:#000000;stroke-width:3;stroke-linecap:round;stroke-linejoin:miter;stroke-opacity:1;stroke-miterlimit:4;stroke-dasharray:none" /><path
       style="fill:none;fill-rule:evenodd;stroke:#000000;stroke-width:3;stroke-linecap:round;stroke-linejoin:miter;stroke-miterlimit:4;stroke-dasharray:none;stroke-opacity:1"
       d="m 270,210 c -10,0 -10,0 -10,0"
       id="path5610"
       inkscape:connector-curvature="0" /><path
       style="fill:none;fill-rule:evenodd;stroke:#000000;stroke-width:3;stroke-linecap:round;stroke-linejoin:miter;stroke-miterlimit:4;stroke-dasharray:none;stroke-opacity:1"
       d="m 242.92893,217.07107 c -7.07107,7.07107 -7.07107,7.07107 -7.07107,7.07107"
       id="path5612"
       inkscape:connector-curvature="0" /><path
       inkscape:connector-curvature="0"
       id="path5614"
       d="m 264.14214,195.85786 c -7.07107,7.07107 -7.07107,7.07107 -7.07107,7.07107"
       style="fill:none;fill-rule:evenodd;stroke:#000000;stroke-width:3;stroke-linecap:round;stroke-linejoin:miter;stroke-miterlimit:4;stroke-dasharray:none;stroke-opacity:1" /><path
       inkscape:connector-curvature="0"
       id="path5616"
       d="m 250,220 c 0,10.00001 0,10.00001 0,10.00001"
       style="fill:none;fill-rule:evenodd;stroke:#000000;stroke-width:3;stroke-linecap:round;stroke-linejoin:miter;stroke-miterlimit:4;stroke-dasharray:none;stroke-opacity:1" /><path
       style="fill:none;fill-rule:evenodd;stroke:#000000;stroke-width:3;stroke-linecap:round;stroke-linejoin:miter;stroke-miterlimit:4;stroke-dasharray:none;stroke-opacity:1"
       d="M 250,189.99999 C 250,200 250,200 250,200"
       id="path5618"
       inkscape:connector-curvature="0" /><path
       style="fill:none;fill-rule:evenodd;stroke:#000000;stroke-width:3;stroke-linecap:round;stroke-linejoin:miter;stroke-miterlimit:4;stroke-dasharray:none;stroke-opacity:1"
       d="m 257.07107,217.07107 c 7.07107,7.07107 7.07107,7.07107 7.07107,7.07107"
       id="path5620"
       inkscape:connector-curvature="0" /><path
       inkscape:connector-curvature="0"
       id="path5622"
       d="m 235.85786,195.85786 c 7.07107,7.07107 7.07107,7.07107 7.07107,7.07107"
       style="fill:none;fill-rule:evenodd;stroke:#000000;stroke-width:3;stroke-linecap:round;stroke-linejoin:miter;stroke-miterlimit:4;stroke-dasharray:none;stroke-opacity:1" /></g><g
     id="g5635"
     transform="matrix(0.69851611,0,0,0.69851611,75.370972,143.31162)"><circle
       style="opacity:1;fill:#000000;fill-opacity:1;stroke:none;stroke-width:5;stroke-linecap:round;stroke-miterlimit:4;stroke-dasharray:none;stroke-opacity:1"
       id="circle5637"
       cx="250"
       cy="210"
       r="7.5" /><path
       style="fill:none;fill-rule:evenodd;stroke:#000000;stroke-width:3;stroke-linecap:round;stroke-linejoin:miter;stroke-miterlimit:4;stroke-dasharray:none;stroke-opacity:1"
       d="m 240,210 c -10,0 -10,0 -10,0"
       id="path5639"
       inkscape:connector-curvature="0" /><path
       inkscape:connector-curvature="0"
       id="path5641"
       d="m 270,210 c -10,0 -10,0 -10,0"
       style="fill:none;fill-rule:evenodd;stroke:#000000;stroke-width:3;stroke-linecap:round;stroke-linejoin:miter;stroke-miterlimit:4;stroke-dasharray:none;stroke-opacity:1" /><path
       inkscape:connector-curvature="0"
       id="path5643"
       d="m 242.92893,217.07107 c -7.07107,7.07107 -7.07107,7.07107 -7.07107,7.07107"
       style="fill:none;fill-rule:evenodd;stroke:#000000;stroke-width:3;stroke-linecap:round;stroke-linejoin:miter;stroke-miterlimit:4;stroke-dasharray:none;stroke-opacity:1" /><path
       style="fill:none;fill-rule:evenodd;stroke:#000000;stroke-width:3;stroke-linecap:round;stroke-linejoin:miter;stroke-miterlimit:4;stroke-dasharray:none;stroke-opacity:1"
       d="m 264.14214,195.85786 c -7.07107,7.07107 -7.07107,7.07107 -7.07107,7.07107"
       id="path5645"
       inkscape:connector-curvature="0" /><path
       style="fill:none;fill-rule:evenodd;stroke:#000000;stroke-width:3;stroke-linecap:round;stroke-linejoin:miter;stroke-miterlimit:4;stroke-dasharray:none;stroke-opacity:1"
       d="m 250,220 c 0,10.00001 0,10.00001 0,10.00001"
       id="path5647"
       inkscape:connector-curvature="0" /><path
       inkscape:connector-curvature="0"
       id="path5649"
       d="M 250,189.99999 C 250,200 250,200 250,200"
       style="fill:none;fill-rule:evenodd;stroke:#000000;stroke-width:3;stroke-linecap:round;stroke-linejoin:miter;stroke-miterlimit:4;stroke-dasharray:none;stroke-opacity:1" /><path
       inkscape:connector-curvature="0"
       id="path5651"
       d="m 257.07107,217.07107 c 7.07107,7.07107 7.07107,7.07107 7.07107,7.07107"
       style="fill:none;fill-rule:evenodd;stroke:#000000;stroke-width:3;stroke-linecap:round;stroke-linejoin:miter;stroke-miterlimit:4;stroke-dasharray:none;stroke-opacity:1" /><path
       style="fill:none;fill-rule:evenodd;stroke:#000000;stroke-width:3;stroke-linecap:round;stroke-linejoin:miter;stroke-miterlimit:4;stroke-dasharray:none;stroke-opacity:1"
       d="m 235.85786,195.85786 c 7.07107,7.07107 7.07107,7.07107 7.07107,7.07107"
       id="path5653"
       inkscape:connector-curvature="0" /></g><path
     style="opacity:1;fill:#ff0000;fill-opacity:1;stroke:none;stroke-width:3;stroke-linecap:round;stroke-miterlimit:4;stroke-dasharray:none;stroke-opacity:1"
     d="m 172.4929,211.81432 0,-35.58006 77.52707,0 77.52707,0 0,35.58006 0,35.58005 -77.52707,0 -77.52707,0 0,-35.58005 z m 79.24523,13.5911 c 0.12716,-3.39092 -0.11701,-6.27418 -0.5784,-6.83013 -0.60934,-0.7342 -0.32367,-1.05283 1.20608,-1.34526 1.69973,-0.32493 2.62573,0.28776 6.08973,4.02929 2.24685,2.42687 4.70314,4.41249 5.45841,4.41249 3.01849,0 2.30893,-1.84475 -2.50886,-6.52272 -4.52831,-4.39688 -4.87643,-4.95365 -4.12647,-6.59963 0.65052,-1.42775 1.0953,-1.64979 2.1616,-1.07912 2.08102,1.11373 9.93319,0.87361 11.59736,-0.35465 2.63242,-1.9429 0.36061,-2.81009 -6.66066,-2.5425 -6.09107,0.23214 -6.46714,0.15514 -7.20817,-1.4757 -1.00514,-2.21209 -0.98696,-2.39918 0.2331,-2.39918 1.41789,0 8.90501,-8.06719 8.53065,-9.19156 -0.73442,-2.20577 -3.06784,-1.25631 -7.16067,2.91365 -4.10541,4.18278 -4.38217,4.33001 -7.74575,4.12056 -1.91852,-0.11947 -4.19377,0.16038 -5.05611,0.62189 -1.22291,0.65448 -1.5679,0.62166 -1.5679,-0.14915 0,-1.71235 -7.98972,-9.05831 -9.30372,-8.55408 -0.65067,0.24968 -1.18303,0.87529 -1.18303,1.39024 0,1.24118 7.5448,8.84845 8.77579,8.84845 1.16401,0 1.17907,0.20063 0.18008,2.39918 -0.74103,1.63084 -1.11709,1.70784 -7.20817,1.4757 -7.02127,-0.26759 -9.29307,0.5996 -6.66065,2.5425 1.66416,1.22826 9.51633,1.46838 11.59736,0.35465 1.08098,-0.57853 1.52091,-0.32704 2.25805,1.2908 0.74061,1.62546 0.72515,2.06924 -0.081,2.32304 -1.80277,0.5676 -9.01932,8.24155 -8.68749,9.23811 0.17855,0.53625 0.92641,1.09165 1.66189,1.23422 1.59949,0.31006 8.65084,-6.35068 8.65084,-8.17163 0,-1.05719 0.35973,-1.11464 2.59619,-0.41464 1.66981,0.52264 2.33801,1.07078 1.87263,1.53615 -0.82499,0.825 -0.99789,11.88478 -0.19829,12.68438 0.2889,0.28889 1.04732,0.42569 1.68538,0.30398 0.90658,-0.17292 1.20819,-1.50367 1.38015,-6.08933 z m -0.22005,-30.45507 c 0,-5.85733 -0.11769,-6.3567 -1.49811,-6.3567 -1.34324,0 -1.5211,0.57352 -1.72055,5.5478 -0.25731,6.41737 0.0897,7.76819 1.90555,7.41848 1.12842,-0.21731 1.31311,-1.14694 1.31311,-6.60958 z"
     id="path5695"
     inkscape:connector-curvature="0" /></svg>