<?xml version="1.0" encoding="UTF-8" standalone="no"?>
<!-- Generator: Adobe Illustrator 16.0.4, SVG Export Plug-In . SVG Version: 6.00 Build 0)  -->

<svg
   xmlns:dc="http://purl.org/dc/elements/1.1/"
   xmlns:cc="http://creativecommons.org/ns#"
   xmlns:rdf="http://www.w3.org/1999/02/22-rdf-syntax-ns#"
   xmlns:svg="http://www.w3.org/2000/svg"
   xmlns="http://www.w3.org/2000/svg"
   xmlns:sodipodi="http://sodipodi.sourceforge.net/DTD/sodipodi-0.dtd"
   xmlns:inkscape="http://www.inkscape.org/namespaces/inkscape"
   version="1.1"
   x="0px"
   y="0px"
   width="500px"
   height="500px"
   viewBox="0 0 500 500"
   enable-background="new 0 0 500 500"
   xml:space="preserve"
   id="svg4203"
   inkscape:version="0.91 r13725"
   sodipodi:docname="group_outline.svg"><metadata
     id="metadata4227"><rdf:RDF><cc:Work
         rdf:about=""><dc:format>image/svg+xml</dc:format><dc:type
           rdf:resource="http://purl.org/dc/dcmitype/StillImage" /><dc:title></dc:title></cc:Work></rdf:RDF></metadata><defs
     id="defs4225" /><sodipodi:namedview
     pagecolor="#ffffff"
     bordercolor="#666666"
     borderopacity="1"
     objecttolerance="10"
     gridtolerance="10"
     guidetolerance="10"
     inkscape:pageopacity="0"
     inkscape:pageshadow="2"
     inkscape:window-width="2880"
     inkscape:window-height="1752"
     id="namedview4223"
     showgrid="false"
     inkscape:zoom="2.6700352"
     inkscape:cx="302.30653"
     inkscape:cy="284.56044"
     inkscape:window-x="0"
     inkscape:window-y="48"
     inkscape:window-maximized="1"
     inkscape:current-layer="svg4203" /><g
     transform="matrix(0.87609764,0,0,0.87609764,-80.36043,71.14721)"
     id="g4837"><g
       id="g4839"><polyline
         style="fill:none;stroke:#000000;stroke-width:4.80000019;stroke-miterlimit:10"
         stroke-miterlimit="10"
         points="341.939,163.139 247.72,163.139     246.876,163.139 158.423,163.139   "
         id="polyline4841" /><polyline
         style="fill:none;stroke:#000000;stroke-width:4.80000019;stroke-miterlimit:10"
         stroke-miterlimit="10"
         points="300.502,364.005 248.822,364.005     248.376,364.005 199.884,364.005   "
         id="polyline4843" /><polyline
         style="fill:none;stroke:#000000;stroke-width:4.80000019;stroke-linecap:round;stroke-linejoin:round;stroke-miterlimit:10"
         stroke-miterlimit="10"
         points="    304.533,379.239 248.705,384.044 248.212,384.067 195.853,388.567   "
         id="polyline4845" /><polyline
         style="fill:none;stroke:#000000;stroke-width:4.80000019;stroke-linecap:round;stroke-linejoin:round;stroke-miterlimit:10"
         stroke-miterlimit="10"
         points="    305.307,395.106 249.525,399.888 249.033,399.958 196.673,404.435   "
         id="polyline4847" /><polyline
         style="fill:none;stroke:#000000;stroke-width:4.80000019;stroke-linecap:round;stroke-linejoin:round;stroke-miterlimit:10"
         stroke-miterlimit="10"
         points="    304.533,410.974 248.705,415.755 248.212,415.802 195.853,420.302   "
         id="polyline4849" /><path
         style="fill:none;stroke:#000000;stroke-width:4.80000019;stroke-miterlimit:10"
         inkscape:connector-curvature="0"
         stroke-miterlimit="10"
         d="m 342.314,163.139 c 0,0 12.234,-21.234 26.039,-61.078 4.781,-14.344 6.398,-32.953 -19.664,-45.703 -22.734,-11.133 -69.75,-16.969 -97.922,-16.477 -28.219,-0.492 -75.234,5.344 -97.969,16.477 -26.062,12.75 -24.469,31.359 -19.688,45.703 13.828,39.844 26.062,61.078 26.062,61.078 29.766,93.003 27.633,183.851 27.633,183.851 l 14.883,17.016 c 0,0 0,55.781 0,63.211 0,7.43 11.672,12.773 20.695,14.883 1.594,3.188 6.398,8.508 11.695,14.344 7.125,2.391 26.204,2.391 33.329,0 5.297,-5.836 10.078,-11.156 11.672,-14.344 9.047,-2.109 20.742,-7.453 20.742,-14.883 0,-7.43 0,-63.211 0,-63.211 l 14.883,-17.016 c 10e-4,-0.001 -2.155,-90.848 27.61,-183.851 z"
         id="path4851" /></g></g><g
     id="g4769"
     transform="matrix(0.87609764,0,0,0.87609764,139.63957,71.14721)"><g
       id="g4771"><polyline
         id="polyline4773"
         points="341.939,163.139 247.72,163.139     246.876,163.139 158.423,163.139   "
         stroke-miterlimit="10"
         style="fill:none;stroke:#000000;stroke-width:4.80000019;stroke-miterlimit:10" /><polyline
         id="polyline4775"
         points="300.502,364.005 248.822,364.005     248.376,364.005 199.884,364.005   "
         stroke-miterlimit="10"
         style="fill:none;stroke:#000000;stroke-width:4.80000019;stroke-miterlimit:10" /><polyline
         id="polyline4777"
         points="    304.533,379.239 248.705,384.044 248.212,384.067 195.853,388.567   "
         stroke-miterlimit="10"
         style="fill:none;stroke:#000000;stroke-width:4.80000019;stroke-linecap:round;stroke-linejoin:round;stroke-miterlimit:10" /><polyline
         id="polyline4779"
         points="    305.307,395.106 249.525,399.888 249.033,399.958 196.673,404.435   "
         stroke-miterlimit="10"
         style="fill:none;stroke:#000000;stroke-width:4.80000019;stroke-linecap:round;stroke-linejoin:round;stroke-miterlimit:10" /><polyline
         id="polyline4781"
         points="    304.533,410.974 248.705,415.755 248.212,415.802 195.853,420.302   "
         stroke-miterlimit="10"
         style="fill:none;stroke:#000000;stroke-width:4.80000019;stroke-linecap:round;stroke-linejoin:round;stroke-miterlimit:10" /><path
         id="path4783"
         d="m 342.314,163.139 c 0,0 12.234,-21.234 26.039,-61.078 4.781,-14.344 6.398,-32.953 -19.664,-45.703 -22.734,-11.133 -69.75,-16.969 -97.922,-16.477 -28.219,-0.492 -75.234,5.344 -97.969,16.477 -26.062,12.75 -24.469,31.359 -19.688,45.703 13.828,39.844 26.062,61.078 26.062,61.078 29.766,93.003 27.633,183.851 27.633,183.851 l 14.883,17.016 c 0,0 0,55.781 0,63.211 0,7.43 11.672,12.773 20.695,14.883 1.594,3.188 6.398,8.508 11.695,14.344 7.125,2.391 26.204,2.391 33.329,0 5.297,-5.836 10.078,-11.156 11.672,-14.344 9.047,-2.109 20.742,-7.453 20.742,-14.883 0,-7.43 0,-63.211 0,-63.211 l 14.883,-17.016 c 10e-4,-0.001 -2.155,-90.848 27.61,-183.851 z"
         stroke-miterlimit="10"
         inkscape:connector-curvature="0"
         style="fill:none;stroke:#000000;stroke-width:4.80000019;stroke-miterlimit:10" /></g></g><g
     id="Layer_1"
     display="none"><rect
       display="inline"
       width="500"
       height="500"
       id="rect4206" /></g><g
     id="Layer_2"><g
       id="g4209"><polyline
         fill="none"
         stroke="#000000"
         stroke-width="4.8"
         stroke-miterlimit="10"
         points="341.939,163.139 247.72,163.139     246.876,163.139 158.423,163.139   "
         id="polyline4211" /><polyline
         fill="none"
         stroke="#000000"
         stroke-width="4.8"
         stroke-miterlimit="10"
         points="300.502,364.005 248.822,364.005     248.376,364.005 199.884,364.005   "
         id="polyline4213" /><polyline
         fill="none"
         stroke="#000000"
         stroke-width="4.8"
         stroke-linecap="round"
         stroke-linejoin="round"
         stroke-miterlimit="10"
         points="    304.533,379.239 248.705,384.044 248.212,384.067 195.853,388.567   "
         id="polyline4215" /><polyline
         fill="none"
         stroke="#000000"
         stroke-width="4.8"
         stroke-linecap="round"
         stroke-linejoin="round"
         stroke-miterlimit="10"
         points="    305.307,395.106 249.525,399.888 249.033,399.958 196.673,404.435   "
         id="polyline4217" /><polyline
         fill="none"
         stroke="#000000"
         stroke-width="4.8"
         stroke-linecap="round"
         stroke-linejoin="round"
         stroke-miterlimit="10"
         points="    304.533,410.974 248.705,415.755 248.212,415.802 195.853,420.302   "
         id="polyline4219" /><path
         fill="none"
         stroke="#000000"
         stroke-width="4.8"
         stroke-miterlimit="10"
         d="M342.314,163.139    c0,0,12.234-21.234,26.039-61.078c4.781-14.344,6.398-32.953-19.664-45.703c-22.734-11.133-69.75-16.969-97.922-16.477    c-28.219-0.492-75.234,5.344-97.969,16.477c-26.062,12.75-24.469,31.359-19.688,45.703c13.828,39.844,26.062,61.078,26.062,61.078    c29.766,93.003,27.633,183.851,27.633,183.851l14.883,17.016c0,0,0,55.781,0,63.211s11.672,12.773,20.695,14.883    c1.594,3.188,6.398,8.508,11.695,14.344c7.125,2.391,26.204,2.391,33.329,0c5.297-5.836,10.078-11.156,11.672-14.344    c9.047-2.109,20.742-7.453,20.742-14.883s0-63.211,0-63.211l14.883-17.016C314.705,346.989,312.549,256.142,342.314,163.139z"
         id="path4221" /></g></g><path
     style="opacity:1;fill:#ffffff;fill-opacity:1;stroke:none;stroke-width:2;stroke-miterlimit:4;stroke-dasharray:none;stroke-opacity:1"
     d="M 159.06128,157.48115 C 151.80093,143.98893 136.99811,107.69702 134.27,96.700646 c -3.54195,-14.276782 0.0404,-24.68654 11.37193,-33.044541 15.87055,-11.705986 56.47167,-20.333174 99.43689,-21.128993 20.93502,-0.387767 40.06163,1.049042 60.92972,4.577099 34.86137,5.893825 53.39224,14.585929 59.85371,28.075025 0.88805,1.853909 1.83852,4.297697 2.11215,5.43064 0.68139,2.821158 0.56973,10.343707 -0.20569,13.857496 -2.16298,9.801518 -13.86526,39.497718 -22.69175,57.583508 l -4.0669,8.33323 -90.19353,-3.8e-4 -90.19352,-3.6e-4 -1.56173,-2.90222 z"
     id="path4805"
     inkscape:connector-curvature="0" /><path
     style="opacity:1;fill:#ffffff;fill-opacity:1;stroke:none;stroke-width:2;stroke-miterlimit:4;stroke-dasharray:none;stroke-opacity:1"
     d="m 196.11545,353.73362 -6.81225,-7.77144 -0.0155,-8.05233 c -0.017,-8.84717 -0.4654,-19.73249 -1.33452,-32.39657 -3.11832,-45.43748 -10.88514,-90.52446 -22.45199,-130.33536 -1.31668,-4.53178 -2.50748,-8.53453 -2.64621,-8.89502 -0.2398,-0.62306 4.09439,-0.65542 87.80164,-0.65542 54.36529,0 88.05389,0.13396 88.05389,0.35015 0,0.19258 -0.17552,0.8118 -0.39004,1.37604 -0.81473,2.14289 -5.26321,18.03275 -7.24218,25.86891 -10.36384,41.03766 -16.68818,85.71238 -18.57383,131.20431 -0.49372,11.91115 -0.49762,18.46541 -0.0108,18.16455 0.22521,-0.13918 0.37056,0.33729 0.36457,1.19511 -0.009,1.31191 -0.58267,2.08134 -7.13511,9.57254 l -7.12514,8.14596 -47.83514,0 -47.83514,0 -6.81225,-7.77143 -1e-5,0 z"
     id="path4807"
     inkscape:connector-curvature="0" /><path
     style="opacity:1;fill:#ffffff;fill-opacity:1;stroke:none;stroke-width:2;stroke-miterlimit:4;stroke-dasharray:none;stroke-opacity:1"
     d="m 204.25539,375.92433 0,-9.1759 46.44133,0 46.44134,0 0,5.22042 0,5.22043 -1.59174,0.21308 c -0.87546,0.11719 -18.44545,1.64601 -39.04443,3.39737 -20.59898,1.75137 -40.17012,3.43545 -43.49141,3.74241 -3.3213,0.30696 -6.64991,0.5581 -7.39691,0.5581 l -1.35818,0 0,-9.17591 z"
     id="path4809"
     inkscape:connector-curvature="0" /><path
     style="opacity:1;fill:#ffffff;fill-opacity:1;stroke:none;stroke-width:2;stroke-miterlimit:4;stroke-dasharray:none;stroke-opacity:1"
     d="m 204.25539,395.77426 c 0,-4.41398 0.0985,-5.43064 0.52613,-5.43064 0.28938,0 10.2752,-0.83766 22.19072,-1.86147 11.91552,-1.02381 31.60827,-2.70662 43.76167,-3.73958 12.1534,-1.03297 23.06618,-1.98149 24.25062,-2.10784 l 2.15353,-0.22972 0,5.46741 c 0,5.10027 -0.0473,5.46742 -0.7037,5.46742 -0.38704,0 -12.47957,1.01676 -26.8723,2.25947 -34.48572,2.97761 -65.04861,5.60559 -65.19182,5.60559 -0.0632,0 -0.11485,-2.44379 -0.11485,-5.43064 z"
     id="path4811"
     inkscape:connector-curvature="0" /><path
     style="opacity:1;fill:#ffffff;fill-opacity:1;stroke:none;stroke-width:2;stroke-miterlimit:4;stroke-dasharray:none;stroke-opacity:1"
     d="m 204.25539,411.70862 0,-5.2264 1.21721,-0.19383 c 0.66947,-0.10661 10.31822,-0.95832 21.44167,-1.8927 11.12344,-0.93437 30.92655,-2.62313 44.00691,-3.7528 13.08035,-1.12966 24.3302,-2.05523 24.99967,-2.05681 l 1.21721,-0.003 0,5.24338 c 0,3.43824 -0.13645,5.24338 -0.39634,5.24338 -0.21798,0 -5.23196,0.42046 -11.14217,0.93437 -12.63374,1.09853 -43.36714,3.75314 -64.99784,5.6142 -8.41566,0.72407 -15.53635,1.31649 -15.82376,1.31649 -0.4221,0 -0.52256,-1.00477 -0.52256,-5.22641 z"
     id="path4813"
     inkscape:connector-curvature="0" /><path
     style="opacity:1;fill:#ffffff;fill-opacity:1;stroke:none;stroke-width:2;stroke-miterlimit:4;stroke-dasharray:none;stroke-opacity:1"
     d="m 241.89534,455.28156 c -6.29502,-0.90283 -5.99951,-0.78648 -8.29722,-3.26667 -3.39313,-3.6626 -7.48439,-8.68516 -8.53487,-10.47767 -0.88809,-1.51542 -1.16651,-1.70034 -3.48957,-2.31771 -7.71227,-2.0496 -13.99696,-5.5836 -16.25138,-9.13846 -0.95022,-1.49834 -1.06691,-2.01955 -1.06691,-4.76554 l 0,-3.0832 1.96626,-0.2202 c 1.08145,-0.1211 7.86507,-0.72117 15.07471,-1.33347 7.20965,-0.61231 26.88325,-2.29499 43.71913,-3.73929 16.83588,-1.44431 30.95087,-2.62601 31.36663,-2.62601 0.73189,0 0.75594,0.22794 0.75594,7.16544 0,6.58545 -0.0626,7.26666 -0.7729,8.41601 -2.03968,3.30027 -8.52201,7.08421 -15.4612,9.02518 -3.45581,0.96663 -3.73059,1.11598 -4.37419,2.37756 -0.80973,1.5872 -3.07534,4.44373 -7.41177,9.34492 -2.9696,3.35635 -3.26774,3.58599 -5.26037,4.05171 -2.05899,0.48122 -19.45793,0.94658 -21.96229,0.5874 z"
     id="path4815"
     inkscape:connector-curvature="0" /></svg>