<?xml version="1.0" encoding="utf-8"?>
<!-- Generator: Adobe Illustrator 16.0.4, SVG Export Plug-In . SVG Version: 6.00 Build 0)  -->
<!DOCTYPE svg PUBLIC "-//W3C//DTD SVG 1.1//EN" "http://www.w3.org/Graphics/SVG/1.1/DTD/svg11.dtd">
<svg version="1.1" xmlns="http://www.w3.org/2000/svg" xmlns:xlink="http://www.w3.org/1999/xlink" x="0px" y="0px" width="500px"
	 height="500px" viewBox="0 0 500 500" enable-background="new 0 0 500 500" xml:space="preserve">
<g id="Layer_1" display="none">
	<rect display="inline" width="500" height="500"/>
</g>
<g id="Layer_2">
	<path fill="none" stroke="#000000" stroke-width="4.8" stroke-miterlimit="10" d="M251.452,55.93
		c-4.196,0-88.923-0.258-129.892,8.508v12c0,0,3.984,3.492,10.992,4.992c0,0,0.516,95.555,13.008,134.555
		c12.516,39,18,40.523,27.516,50.015c9.516,9.516,20.508,20.016,20.508,40.5c0,20.531,0,84.047,0,84.047l23.508,19.5h3v14.508
		h-6.984v15.516h26.484v-15.516h-6v-15.023h17.672h0.353h17.649v15.023h-6v15.516h26.531v-15.516h-7.031v-14.508h3l23.531-19.5
		c0,0,0-63.516,0-84.047c0-20.484,10.992-30.984,20.484-40.5c9.516-9.492,15.023-11.016,27.516-50.015
		c12.516-39,13.031-134.555,13.031-134.555c6.984-1.5,10.992-4.992,10.992-4.992v-12C340.352,55.672,255.625,55.93,251.452,55.93z"
		/>
</g>
</svg>
