<?xml version="1.0" encoding="utf-8"?>
<!-- Generator: Adobe Illustrator 16.0.4, SVG Export Plug-In . SVG Version: 6.00 Build 0)  -->
<!DOCTYPE svg PUBLIC "-//W3C//DTD SVG 1.1//EN" "http://www.w3.org/Graphics/SVG/1.1/DTD/svg11.dtd">
<svg version="1.1" xmlns="http://www.w3.org/2000/svg" xmlns:xlink="http://www.w3.org/1999/xlink" x="0px" y="0px" width="500px"
	 height="500px" viewBox="0 0 500 500" enable-background="new 0 0 500 500" xml:space="preserve">
<g id="Layer_1" display="none">
	<rect display="inline" width="500" height="500"/>
</g>
<g id="Layer_2">
	<g>
		<path fill="none" stroke="#000000" stroke-width="4.8" stroke-linecap="round" stroke-miterlimit="10" d="M185.782,359.98
			c-4.172,5.203-10.594,8.531-17.766,8.531c-12.562,0-22.734-10.172-22.734-22.734c0-1.922,0.234-3.797,0.703-5.578"/>
		<path fill="none" stroke="#000000" stroke-width="4.8" stroke-linecap="round" stroke-miterlimit="10" d="M444.813,174.026
			c0,106.829-86.625,197.345-193.453,197.345c-38.86,0-75.047-11.438-105.375-31.172c-53.016-34.5-88.078-99.423-88.078-167.392"/>
		<path fill="none" stroke="#000000" stroke-width="4.8" stroke-miterlimit="10" d="M251.501,126.073
			c106.828,0.328,193.359,21.797,193.312,47.953c-0.094,26.062-86.766,47.016-193.594,46.688
			c-106.829-0.281-193.36-21.75-193.313-47.906C58,146.698,144.625,125.745,251.501,126.073z"/>
		<path fill="none" stroke="#000000" stroke-width="4.8" stroke-miterlimit="10" d="M251.454,131.417
			c98.203,0.281,177.75,16.969,177.703,37.266c-0.141,20.344-79.734,36.609-177.891,36.328
			c-98.204-0.281-177.75-16.969-177.704-37.312C73.61,147.401,153.297,131.089,251.454,131.417z"/>
	</g>
</g>
</svg>
