<?xml version="1.0" encoding="utf-8"?>
<!-- Generator: Adobe Illustrator 16.0.4, SVG Export Plug-In . SVG Version: 6.00 Build 0)  -->
<!DOCTYPE svg PUBLIC "-//W3C//DTD SVG 1.1//EN" "http://www.w3.org/Graphics/SVG/1.1/DTD/svg11.dtd">
<svg version="1.1" xmlns="http://www.w3.org/2000/svg" xmlns:xlink="http://www.w3.org/1999/xlink" x="0px" y="0px" width="500px"
	 height="500px" viewBox="0 0 500 500" enable-background="new 0 0 500 500" xml:space="preserve">
<g id="Layer_1" display="none">
	<rect display="inline" width="500" height="500"/>
</g>
<g id="Layer_2">
	<g>
		<path d="M355.179,268.544c-43.688-55.059-108.896-106.938-128.329-120.77c-60.75-43.188-95.016-52.242-113.086-52.242h-2.047
			c-7.508,0.273-12.289,2.641-15.109,6.555c-1.367,1.863-1.82,4.457-2.273,7.098c-0.273,1.594-0.914,2.91-0.914,4.73
			c0.094,3.504,0.781,7.465,1.734,11.559c0.32,1.414,0.359,2.598,0.727,4.051c1.414,4.961,3.367,10.105,5.555,15.336
			c0.359,0.867,0.586,1.684,0.953,2.594c2.727,6.055,5.781,12.059,8.922,17.613c38.359,62.434,83.914,106.301,101.75,122.226
			c35.268,32.902,89.149,74.949,134.75,94.699c7.414,3.188,14.242,5.688,20.562,7.645c2.234,0.637,4.055,0.957,6.148,1.457
			c3.82,0.957,7.594,1.91,10.828,2.32c2.047,0.273,3.688,0.184,5.555,0.227c2.594,0.047,5.188,0.137,7.281-0.27
			c1.5-0.23,2.641-0.82,3.867-1.32c2.094-0.867,4.227-1.641,5.414-3.141c0.094-0.09,0.18-0.137,0.227-0.184
			C422.577,368.203,392.085,313.598,355.179,268.544z"/>
		<path d="M104.663,239.153c0.367,1.727,1.141,4.551,2.047,8.234c4.961,18.7,15.203,57.651,11.656,90.554
			c-2.828,20.344-0.508,31.766,8.055,39.547c9.781,8.918,10.555,10.422,51.875,6.277c7.188-0.727,13.375-1.363,20.75-1.363
			c13.516,0,31.266,2.184,70.219,8.602l28.625,4.867c11.734,2.051,22.703,3.961,32.445,5.555
			c-6.375-2.777-13.016-6.828-19.57-10.379c-5.141-2.82-10.102-5.004-15.336-8.191c-7.461-4.504-14.836-9.738-22.297-14.789
			c-4.641-3.23-9.375-6.051-13.969-9.375c-8.421-6.098-16.334-12.469-24.257-18.84c-3.321-2.594-6.876-5.141-10.056-7.781
			c-10.789-8.965-20.891-17.836-29.766-26.074c-13.148-11.785-41.406-38.951-70.852-77.312c-0.867-1.09-1.641-1.867-2.5-3.047
			c-4.688-6.145-9.289-13.562-13.93-20.297c-5.461-7.828-10.969-15.062-16.203-23.664
			C97.202,205.567,103.256,232.188,104.663,239.153z"/>
	</g>
</g>
</svg>
