<?xml version="1.0" encoding="utf-8"?>
<!-- Generator: Adobe Illustrator 16.0.4, SVG Export Plug-In . SVG Version: 6.00 Build 0)  -->
<!DOCTYPE svg PUBLIC "-//W3C//DTD SVG 1.1//EN" "http://www.w3.org/Graphics/SVG/1.1/DTD/svg11.dtd">
<svg version="1.1" xmlns="http://www.w3.org/2000/svg" xmlns:xlink="http://www.w3.org/1999/xlink" x="0px" y="0px" width="500px"
	 height="500px" viewBox="0 0 500 500" enable-background="new 0 0 500 500" xml:space="preserve">
<g id="Layer_1" display="none">
	<rect display="inline" width="500" height="500"/>
</g>
<g id="Layer_2">
	<g>
		<path d="M143.432,317.519c-20.891,22.344-49.969,53.746-58.523,63.527c6.688,2.867,22.023,8.238,47.375,10.742
			c6.094,0.59,12.742,0.953,19.75,0.953c29.711,0,55.836-5.324,60.75-7.371c0.867-1.273,1.82-2.957,2.727-4.461
			C183.159,361.753,153.487,329.171,143.432,317.519z"/>
		<path d="M223.565,289.624c-62.656-57.472-99.93-119.292-97.883-156.151c-7.508,17.52-11.875,40.773-10.102,59.043
			c5.367,63.984,42.367,102.159,42.734,102.569l3.453,3.504l-0.227,0.227c9.281,10.879,41.461,46.738,74.359,64.758l0,0l0.227,0.137
			c40.727,24.891,74.266,28.578,90.563,28.578c4.914,0,7.688-0.363,7.867-0.363c29.992-3.324,44.414-10.195,51.336-13.516
			c1.273-0.594,2.32-1.094,3.141-1.457c1.867-0.773,5.914-3.367,9.875-6.281c-5.375,2.594-11.516,4.371-19.117,4.371
			C341.479,375.042,280.136,341.503,223.565,289.624z"/>
		<path d="M241.495,271.014c53.977,49.372,114,82.638,149.36,82.638c9.555,0,16.656-2.457,21.109-7.324
			c19.438-21.164-12.055-91.831-89.875-163.366c-53.969-49.441-113.946-82.664-149.305-82.664c-9.555,0-16.656,2.457-21.117,7.281
			C132.237,128.832,163.635,199.547,241.495,271.014z"/>
	</g>
</g>
</svg>
