<?xml version="1.0" encoding="utf-8"?>
<!-- Generator: Adobe Illustrator 16.0.4, SVG Export Plug-In . SVG Version: 6.00 Build 0)  -->
<!DOCTYPE svg PUBLIC "-//W3C//DTD SVG 1.1//EN" "http://www.w3.org/Graphics/SVG/1.1/DTD/svg11.dtd">
<svg version="1.1" xmlns="http://www.w3.org/2000/svg" xmlns:xlink="http://www.w3.org/1999/xlink" x="0px" y="0px" width="500px"
	 height="500px" viewBox="0 0 500 500" enable-background="new 0 0 500 500" xml:space="preserve">
<g id="Layer_1" display="none">
	<rect display="inline" width="500" height="500"/>
</g>
<g id="Layer_2">
	<g>
		<path fill="none" stroke="#000000" stroke-width="4.8" stroke-miterlimit="10" d="M287.609,219.602
			c32.25,29.578,49.617,63.141,38.719,75c-10.852,11.859-45.844-2.484-78.091-32.109c-32.273-29.578-49.594-63.188-38.719-75.094
			C220.393,175.539,255.338,189.93,287.609,219.602z"/>
		<path fill="none" stroke="#000000" stroke-width="4.8" stroke-miterlimit="10" d="M299.422,203.102
			c54.656,50.203,84.516,106.594,66.656,126.094c-17.859,19.453-76.641-5.344-131.341-55.5
			c-54.656-50.109-84.516-106.641-66.656-126.094C185.94,128.102,244.721,152.945,299.422,203.102z"/>
		<path fill="none" stroke="#000000" stroke-width="4.8" stroke-miterlimit="10" d="M313.953,187.445
			c75.984,69.703,117.422,148.125,92.625,175.219c-24.844,27.047-106.547-7.453-182.529-77.156
			c-75.961-69.656-117.445-148.125-92.625-175.219C156.245,83.242,237.948,117.789,313.953,187.445z"/>
		<path fill="none" stroke="#000000" stroke-width="4.8" stroke-miterlimit="10" d="M149.752,298.773
			c0,0-39.656-40.125-45.422-108.609c-3.211-33.938,12.844-87.844,37.078-92.156c24.305-4.312,38.391,2.203,61.406,11.203
			c0,0,44.016,19.078,100.263,66.047c56.203,46.969,94.5,102.891,111.844,146.156c1.969,4.828,12.469,28.781,0.188,45.656
			c-3.492,4.781-17.906,15-22.594,16.969c-5.719,2.391-20.578,11.625-57.234,15.656c0,0-45.422,6.422-104.623-29.719
			c0,0-3.844,7.031-6.047,10.219c-2.25,3.188-48.633,11.859-87,8.016c-38.391-3.844-55.031-13.781-55.031-13.781s-1.266,0,0-2.578
			C83.846,369.32,149.752,298.773,149.752,298.773z"/>
		<path fill="none" stroke="#000000" stroke-width="4.8" stroke-miterlimit="10" d="M149.752,298.773
			c0,0,39.656,48.609,80.906,71.203"/>
	</g>
</g>
</svg>
