<?xml version="1.0" encoding="utf-8"?>
<!-- Generator: Adobe Illustrator 16.0.4, SVG Export Plug-In . SVG Version: 6.00 Build 0)  -->
<!DOCTYPE svg PUBLIC "-//W3C//DTD SVG 1.1//EN" "http://www.w3.org/Graphics/SVG/1.1/DTD/svg11.dtd">
<svg version="1.1" xmlns="http://www.w3.org/2000/svg" xmlns:xlink="http://www.w3.org/1999/xlink" x="0px" y="0px" width="500px"
	 height="500px" viewBox="0 0 500 500" enable-background="new 0 0 500 500" xml:space="preserve">
<g id="Layer_1" display="none">
	<rect display="inline" width="500" height="500"/>
</g>
<g id="Layer_2">
	<g>
		<path d="M195.225,312.803C117.772,254.506,95.514,202.589,89.241,173.28c-20.938,37.863-36.594,82.272-31.492,126.05
			c11.195,96.227,98.883,137.477,139.57,142.348c27.305,3.32,57.428-0.637,83.686-11.195c27.07-10.922,54.242-30.102,78.492-53.562
			c-4.453,0.773-8.555,1.637-14.422,1.637C315.044,378.557,266.169,366.225,195.225,312.803z"/>
		<path d="M365.301,139.401c-69.483-60.363-129.193-82.391-161.958-82.891c-14.922,0.273-22.43,3.461-26.391,7.738
			c-1.227,1.316-1.773,2.867-2.367,4.457c-0.367,0.82-1,1.641-1.227,2.551c-0.5,2.457-0.688,5.051-0.688,7.824
			c0.867,26.965,34.359,79.98,96.795,128.785c82.188,60.792,127.233,69.851,146.757,69.851c13.93,0,23.711-4.234,27.625-11.926
			l0.047-0.043C454.629,241.862,420.23,186.296,365.301,139.401z"/>
		<path d="M424.191,294.916c-4.734,1.504-10.195,2.594-17.297,2.594c-25.391,0-72.624-12.512-153.038-72.03
			c-58.334-45.645-99.795-101.867-100.889-136.863c0-0.09,0-0.273,0-0.41c-13.875,15.062-30.945,36.453-46.32,61.48
			c0.086,0.82,0.266,1.91,0.359,2.82c2.82,24.324,19.156,78.977,103.758,142.636c101.975,76.727,153.669,66.258,170.24,59.07
			c0.047-0.047,0.133-0.137,0.18-0.227c16.883-18.34,32.352-38.047,43.781-59.16C424.777,294.873,424.418,294.873,424.191,294.916z"
			/>
		<path d="M382.98,352.393l-0.133-0.09c-0.047,0.09-0.141,0.18-0.188,0.227C382.754,352.482,382.887,352.436,382.98,352.393z"/>
	</g>
</g>
</svg>
