<?xml version="1.0" encoding="utf-8"?>
<!-- Generator: Adobe Illustrator 16.0.4, SVG Export Plug-In . SVG Version: 6.00 Build 0)  -->
<!DOCTYPE svg PUBLIC "-//W3C//DTD SVG 1.1//EN" "http://www.w3.org/Graphics/SVG/1.1/DTD/svg11.dtd">
<svg version="1.1" xmlns="http://www.w3.org/2000/svg" xmlns:xlink="http://www.w3.org/1999/xlink" x="0px" y="0px" width="500px"
	 height="500px" viewBox="0 0 500 500" enable-background="new 0 0 500 500" xml:space="preserve">
<g id="Layer_1" display="none">
	<rect display="inline" width="500" height="500"/>
</g>
<g id="Layer_2">
	<g>
		<path d="M101.398,346.165c0,0.32-0.234,20.34,16.062,36.953c15.422,15.789,40.227,23.891,73.812,23.891h209.328v-53.883H188.266
			c-0.047,0-0.086,0-0.133,0c-7.781,0-30.312-0.68-52.016-8.598v0.27l-7.188-3.23c-2.641-1.273-4.734-2.82-7.102-4.277
			c-2.547-1.32-5.328-2.684-7.508-4.457c-3.281-2.324-5.914-5.188-8.508-8.055c-1.414-1.457-3.234-2.551-4.414-4.145V346.165z"/>
		<path d="M400.508,153.215c0-0.363,0.273-20.34-16.016-37.02c-15.383-15.793-40.273-23.801-73.812-23.801H101.398v53.859h212.242
			c0-0.047,1.867-0.184,4.773-0.184c9.328,0,28.719,1.957,47.648,9.648c0,0,15.156,7.691,17.156,9.102
			c6.508,4.73,12.242,10.012,16.562,16.246c0.188,0.316,0.594,0.453,0.727,0.863V153.215z"/>
		<path d="M164.016,288.278c20.477-6.598,135.742-13.195,140.609-13.422c1.188-0.09,91.836-1.91,95.609-54.973
			c-0.227-1.82-0.859-3.004-1.227-4.551c-1.227-5.645-3.047-10.922-5.688-15.699c-1.047-1.867-2.141-3.504-3.32-5.188
			c-3.961-5.598-8.555-10.648-14.609-14.699c-0.047-0.09-0.133-0.09-0.18-0.137c-3.047,11.285-12.109,25.211-37.594,31.445
			c-38.727,9.555-136.242,13.332-140.383,13.426c-10.375,0-93.109,1.547-95.609,55.973c0.039,0.59,0.227,1.227,0.273,1.82
			c0.406,7.145,2.453,13.516,5.688,19.34c0.633,1.09,1.18,2.32,1.867,3.457c4.047,5.871,9.508,10.832,16.609,15.02
			c0.359,0.18,0.773,0.363,1.227,0.59C130.562,309.169,139.984,296.243,164.016,288.278z"/>
	</g>
</g>
</svg>
