<?xml version="1.0" encoding="utf-8"?>
<!-- Generator: Adobe Illustrator 16.0.4, SVG Export Plug-In . SVG Version: 6.00 Build 0)  -->
<!DOCTYPE svg PUBLIC "-//W3C//DTD SVG 1.1//EN" "http://www.w3.org/Graphics/SVG/1.1/DTD/svg11.dtd">
<svg version="1.1" xmlns="http://www.w3.org/2000/svg" xmlns:xlink="http://www.w3.org/1999/xlink" x="0px" y="0px" width="500px"
	 height="500px" viewBox="0 0 500 500" enable-background="new 0 0 500 500" xml:space="preserve">
<g id="Layer_1" display="none">
	<rect display="inline" width="500" height="500"/>
</g>
<g id="Layer_2">
	<g>
		<path fill="none" stroke="#000000" stroke-width="4.8" stroke-linecap="round" stroke-miterlimit="10" d="M250.437,125.423
			c42.469,0,81.422,12.234,112.172,32.578c-17.344-43.641-60.75-74.766-111.938-74.766c-51,0-94.359,30.938-111.75,74.391
			C169.577,137.517,208.249,125.423,250.437,125.423z"/>
		<path fill="none" stroke="#000000" stroke-width="4.8" stroke-linecap="round" stroke-miterlimit="10" d="M371.14,278.465
			c0,53.952-53.812,97.687-120.141,97.687c-66.375,0-120.188-43.734-120.188-97.687c0-53.995,53.812-97.729,120.188-97.729
			C317.327,180.735,371.14,224.47,371.14,278.465z M426.921,270.075c0,79.873-78.891,144.607-176.156,144.607
			c-97.312,0-176.156-64.734-176.156-144.607c0-79.918,78.844-144.652,176.156-144.652
			C348.03,125.423,426.921,190.157,426.921,270.075z"/>
		<path fill="none" stroke="#000000" stroke-width="4.8" stroke-linecap="round" stroke-miterlimit="10" d="M250.39,125.423
			c38.859,0,74.766,10.312,104.203,27.656c-20.719-32.906-59.297-55.312-103.969-55.312c-44.531,0-82.922,22.219-103.688,54.844
			C176.187,135.548,211.812,125.423,250.39,125.423z"/>
	</g>
</g>
</svg>
