<?xml version="1.0" encoding="utf-8"?>
<!-- Generator: Adobe Illustrator 16.0.4, SVG Export Plug-In . SVG Version: 6.00 Build 0)  -->
<!DOCTYPE svg PUBLIC "-//W3C//DTD SVG 1.1//EN" "http://www.w3.org/Graphics/SVG/1.1/DTD/svg11.dtd">
<svg version="1.1" xmlns="http://www.w3.org/2000/svg" xmlns:xlink="http://www.w3.org/1999/xlink" x="0px" y="0px" width="500px"
	 height="500px" viewBox="0 0 500 500" enable-background="new 0 0 500 500" xml:space="preserve">
<g id="Layer_1" display="none">
	<rect display="inline" width="500" height="500"/>
</g>
<g id="Layer_2">
	<g>
		<g>
			<path d="M38.901,258.331c-6.57,0-7.391,2.82-1.82,6.281c0,0,124.461,76.859,213.297,76.859
				c88.852,0,213.243-76.859,213.243-76.859c5.594-3.461,4.773-6.281-1.797-6.281H38.901z"/>
		</g>
		<g>
			<path d="M461.8,237.674c6.594,0,7.391-2.867,1.82-6.324c0,0-124.414-76.863-213.243-76.863
				c-88.875,0-213.297,76.906-213.297,76.906c-5.57,3.461-4.75,6.281,1.82,6.281H461.8z"/>
		</g>
	</g>
</g>
</svg>
