<?xml version="1.0" encoding="UTF-8" standalone="no"?>
<!-- Generator: Adobe Illustrator 16.0.4, SVG Export Plug-In . SVG Version: 6.00 Build 0)  -->

<svg
   xmlns:dc="http://purl.org/dc/elements/1.1/"
   xmlns:cc="http://creativecommons.org/ns#"
   xmlns:rdf="http://www.w3.org/1999/02/22-rdf-syntax-ns#"
   xmlns:svg="http://www.w3.org/2000/svg"
   xmlns="http://www.w3.org/2000/svg"
   xmlns:sodipodi="http://sodipodi.sourceforge.net/DTD/sodipodi-0.dtd"
   xmlns:inkscape="http://www.inkscape.org/namespaces/inkscape"
   version="1.1"
   x="0px"
   y="0px"
   width="500px"
   height="500px"
   viewBox="0 0 500 500"
   enable-background="new 0 0 500 500"
   xml:space="preserve"
   id="svg4674"
   inkscape:version="0.91 r13725"
   sodipodi:docname="tap_outline_16.svg"><metadata
     id="metadata4746"><rdf:RDF><cc:Work
         rdf:about=""><dc:format>image/svg+xml</dc:format><dc:type
           rdf:resource="http://purl.org/dc/dcmitype/StillImage" /><dc:title></dc:title></cc:Work></rdf:RDF></metadata><defs
     id="defs4744" /><sodipodi:namedview
     pagecolor="#ffffff"
     bordercolor="#666666"
     borderopacity="1"
     objecttolerance="10"
     gridtolerance="10"
     guidetolerance="10"
     inkscape:pageopacity="0"
     inkscape:pageshadow="2"
     inkscape:window-width="2880"
     inkscape:window-height="1752"
     id="namedview4742"
     showgrid="false"
     inkscape:zoom="2.6700352"
     inkscape:cx="155.61164"
     inkscape:cy="277.10103"
     inkscape:window-x="0"
     inkscape:window-y="48"
     inkscape:window-maximized="1"
     inkscape:current-layer="svg4674" /><g
     id="Layer_1"
     display="none"><rect
       display="inline"
       width="500"
       height="500"
       id="rect4677" /></g><g
     id="g6112"
     transform="matrix(1.3257777,0,0,1.3257777,-82.752294,-78.70602)"><g
       id="g4682"><path
         inkscape:connector-curvature="0"
         id="path4684"
         d="m 250.973,424.979 c -97.594,0 -177.047,-79.453 -177.047,-177.042 0,-97.641 79.453,-177.047 177.047,-177.047 97.645,0 177.074,79.406 177.074,177.047 0,97.589 -79.43,177.042 -177.074,177.042 z m 0,-349.308 c -94.969,0 -172.219,77.25 -172.219,172.266 0,94.964 77.25,172.214 172.219,172.214 94.973,0 172.246,-77.25 172.246,-172.214 0,-95.016 -77.274,-172.266 -172.246,-172.266 z" /></g><path
       d="m 250.973,411.479 c -90.141,0 -163.547,-73.359 -163.547,-163.542 0,-90.234 73.406,-163.547 163.547,-163.547 90.191,0 163.551,73.312 163.551,163.547 -10e-4,90.183 -73.36,163.542 -163.551,163.542 z m 0,-324.229 c -88.594,0 -160.641,72.094 -160.641,160.688 0,88.542 72.047,160.636 160.641,160.636 88.598,0 160.645,-72.094 160.645,-160.636 C 411.617,159.343 339.57,87.25 250.973,87.25 Z"
       id="path4688"
       inkscape:connector-curvature="0" /><g
       style="fill:#000000;fill-opacity:1"
       id="g4690"><path
         style="fill:#000000;fill-opacity:1"
         inkscape:connector-curvature="0"
         id="path4692"
         d="m 163.176,294.245 c -25.547,0 -46.266,-20.81 -46.266,-46.308 0,-25.594 20.719,-46.312 46.266,-46.312 25.547,0 46.312,20.719 46.312,46.312 0,25.499 -20.765,46.308 -46.312,46.308 z m 0,-90.745 c -24.469,0 -44.391,19.922 -44.391,44.438 0,24.467 19.922,44.339 44.391,44.339 24.469,0 44.391,-19.872 44.391,-44.339 C 207.566,223.421 187.645,203.5 163.176,203.5 Z" /></g><g
       id="g4694"><path
         inkscape:connector-curvature="0"
         id="path4696"
         d="m 342.664,294.245 c -25.547,0 -46.312,-20.81 -46.312,-46.308 0,-25.594 20.766,-46.312 46.312,-46.312 25.523,0 46.312,20.719 46.312,46.312 10e-4,25.499 -20.788,46.308 -46.312,46.308 z m 0,-90.745 c -24.492,0 -44.391,19.922 -44.391,44.438 0,24.467 19.898,44.339 44.391,44.339 24.422,0 44.344,-19.872 44.344,-44.339 0,-24.517 -19.922,-44.438 -44.344,-44.438 z" /></g><g
       id="g4698"><path
         inkscape:connector-curvature="0"
         id="path4700"
         d="m 253.883,382.979 c -25.551,0 -46.316,-20.766 -46.316,-46.312 0,-25.5 20.766,-46.312 46.316,-46.312 25.547,0 46.312,20.812 46.312,46.312 0,25.547 -20.765,46.312 -46.312,46.312 z m 0,-90.703 c -24.473,0 -44.395,19.969 -44.395,44.391 0,24.469 19.922,44.391 44.395,44.391 24.469,0 44.391,-19.922 44.391,-44.391 -10e-4,-24.422 -19.922,-44.391 -44.391,-44.391 z" /></g><g
       id="g4702"><path
         inkscape:connector-curvature="0"
         id="path4704"
         d="m 255.055,178.421 c 0,1.219 -0.938,2.203 -2.157,2.203 -1.174,0 -2.159,-0.984 -2.159,-2.203 0,-1.172 0.985,-2.156 2.159,-2.156 1.219,0 2.157,0.985 2.157,2.156 z" /></g><g
       id="g4706"><path
         inkscape:connector-curvature="0"
         id="path4708"
         d="m 165.355,243.062 c 0,1.219 -0.961,2.203 -2.18,2.203 -1.172,0 -2.18,-0.984 -2.18,-2.203 0,-1.172 1.008,-2.156 2.18,-2.156 1.22,0 2.18,0.984 2.18,2.156 z" /></g><g
       id="g4710"><path
         inkscape:connector-curvature="0"
         id="path4712"
         d="m 165.355,253.704 c 0,1.219 -0.961,2.155 -2.18,2.155 -1.172,0 -2.18,-0.937 -2.18,-2.155 0,-1.218 1.008,-2.157 2.18,-2.157 1.22,0 2.18,0.938 2.18,2.157 z" /></g><g
       id="g4714"><path
         inkscape:connector-curvature="0"
         id="path4716"
         d="m 339.031,253.704 c 0,1.219 -0.961,2.155 -2.18,2.155 -1.219,0 -2.156,-0.937 -2.156,-2.155 0,-1.218 0.938,-2.157 2.156,-2.157 1.218,0 2.18,0.938 2.18,2.157 z" /></g><g
       id="g4718"><path
         inkscape:connector-curvature="0"
         id="path4720"
         d="m 252.193,331.089 c 0,1.266 -0.963,2.203 -2.182,2.203 -1.195,0 -2.18,-0.938 -2.18,-2.203 0,-1.172 0.984,-2.156 2.18,-2.156 1.219,0 2.182,0.984 2.182,2.156 z" /></g><g
       id="g4722"><path
         inkscape:connector-curvature="0"
         id="path4724"
         d="m 252.193,341.776 c 0,1.172 -0.963,2.156 -2.182,2.156 -1.195,0 -2.18,-0.984 -2.18,-2.156 0,-1.266 0.984,-2.203 2.18,-2.203 1.219,0 2.182,0.938 2.182,2.203 z" /></g><g
       id="g4726"><path
         inkscape:connector-curvature="0"
         id="path4728"
         d="m 259.93,336.386 c 0,1.172 -0.984,2.109 -2.18,2.109 -1.219,0 -2.203,-0.938 -2.203,-2.109 0,-1.266 0.984,-2.203 2.203,-2.203 1.195,0 2.18,0.937 2.18,2.203 z" /></g><g
       id="g4730"><path
         inkscape:connector-curvature="0"
         id="path4732"
         d="m 339.031,243.062 c 0,1.219 -0.961,2.203 -2.18,2.203 -1.219,0 -2.156,-0.984 -2.156,-2.203 0,-1.172 0.938,-2.156 2.156,-2.156 1.218,0 2.18,0.984 2.18,2.156 z" /></g><g
       id="g4734"><path
         inkscape:connector-curvature="0"
         id="path4736"
         d="m 349.648,243.062 c 0,1.219 -0.984,2.203 -2.18,2.203 -1.196,0 -2.156,-0.984 -2.156,-2.203 0,-1.172 0.961,-2.156 2.156,-2.156 1.195,0 2.18,0.984 2.18,2.156 z" /></g><g
       id="g4738"><path
         inkscape:connector-curvature="0"
         id="path4740"
         d="m 349.648,253.704 c 0,1.219 -0.984,2.155 -2.18,2.155 -1.196,0 -2.156,-0.937 -2.156,-2.155 0,-1.218 0.961,-2.157 2.156,-2.157 1.195,0 2.18,0.938 2.18,2.157 z" /></g></g><path
     style="opacity:1;fill:#ff0000;fill-opacity:1;stroke:none;stroke-width:2;stroke-miterlimit:4;stroke-dasharray:none;stroke-opacity:1"
     d="m 127.2225,308.27252 c -23.15244,-2.88146 -42.059375,-18.16661 -49.248453,-39.8145 -4.924478,-14.82868 -3.882549,-30.21464 2.996464,-44.24821 7.961144,-16.24117 22.621339,-27.67031 40.678839,-31.71337 3.40957,-0.7634 4.87824,-0.87047 11.9401,-0.87047 8.89178,0 12.35265,0.52185 19.05612,2.87339 27.89265,9.78455 44.26166,38.48954 38.39601,67.33194 -2.97856,14.64613 -12.29426,28.38045 -25.10747,37.01644 -5.84233,3.93768 -15.19244,7.66659 -22.23243,8.86651 -4.37552,0.74578 -12.70522,1.02797 -16.47918,0.55827 z m 8.70775,-48.71254 c 1.57922,-1.90207 0.19276,-4.82622 -2.28831,-4.82622 -2.4155,0 -3.80515,2.38107 -2.64969,4.54007 0.85604,1.59953 3.71023,1.76493 4.938,0.28615 z m -0.12082,-14.05264 c 1.05065,-1.33569 0.99417,-2.94909 -0.14306,-4.08631 -2.70776,-2.70777 -6.6741,1.06418 -4.29689,4.08631 0.59874,0.76117 1.10636,0.98682 2.21997,0.98682 1.11362,0 1.62124,-0.22565 2.21998,-0.98682 z"
     id="path6200"
     inkscape:connector-curvature="0" /></svg>