<?xml version="1.0" encoding="utf-8"?>
<!-- Generator: Adobe Illustrator 16.0.4, SVG Export Plug-In . SVG Version: 6.00 Build 0)  -->
<!DOCTYPE svg PUBLIC "-//W3C//DTD SVG 1.1//EN" "http://www.w3.org/Graphics/SVG/1.1/DTD/svg11.dtd">
<svg version="1.1" xmlns="http://www.w3.org/2000/svg" xmlns:xlink="http://www.w3.org/1999/xlink" x="0px" y="0px" width="500px"
	 height="500px" viewBox="0 0 500 500" enable-background="new 0 0 500 500" xml:space="preserve">
<g id="Layer_1" display="none">
	<rect display="inline" width="500" height="500"/>
</g>
<g id="Layer_2">
	<g>
		<g>
			<path d="M250.973,424.979c-97.594,0-177.047-79.453-177.047-177.042c0-97.641,79.453-177.047,177.047-177.047
				c97.645,0,177.074,79.406,177.074,177.047C428.047,345.526,348.617,424.979,250.973,424.979z M250.973,75.671
				c-94.969,0-172.219,77.25-172.219,172.266c0,94.964,77.25,172.214,172.219,172.214c94.973,0,172.246-77.25,172.246-172.214
				C423.219,152.921,345.945,75.671,250.973,75.671z"/>
		</g>
		<g>
			<path d="M250.973,411.479c-90.141,0-163.547-73.359-163.547-163.542c0-90.234,73.406-163.547,163.547-163.547
				c90.191,0,163.551,73.312,163.551,163.547C414.523,338.12,341.164,411.479,250.973,411.479z M250.973,87.25
				c-88.594,0-160.641,72.094-160.641,160.688c0,88.542,72.047,160.636,160.641,160.636c88.598,0,160.645-72.094,160.645-160.636
				C411.617,159.343,339.57,87.25,250.973,87.25z"/>
		</g>
		<g>
			<path d="M163.176,294.245c-25.547,0-46.266-20.81-46.266-46.308c0-25.594,20.719-46.312,46.266-46.312
				s46.312,20.719,46.312,46.312C209.488,273.436,188.723,294.245,163.176,294.245z M163.176,203.5
				c-24.469,0-44.391,19.922-44.391,44.438c0,24.467,19.922,44.339,44.391,44.339s44.391-19.872,44.391-44.339
				C207.566,223.421,187.645,203.5,163.176,203.5z"/>
		</g>
		<g>
			<path d="M342.664,294.245c-25.547,0-46.312-20.81-46.312-46.308c0-25.594,20.766-46.312,46.312-46.312
				c25.523,0,46.312,20.719,46.312,46.312C388.977,273.436,368.188,294.245,342.664,294.245z M342.664,203.5
				c-24.492,0-44.391,19.922-44.391,44.438c0,24.467,19.898,44.339,44.391,44.339c24.422,0,44.344-19.872,44.344-44.339
				C387.008,223.421,367.086,203.5,342.664,203.5z"/>
		</g>
		<g>
			<path d="M253.883,382.979c-25.551,0-46.316-20.766-46.316-46.312c0-25.5,20.766-46.312,46.316-46.312
				c25.547,0,46.312,20.812,46.312,46.312C300.195,362.214,279.43,382.979,253.883,382.979z M253.883,292.276
				c-24.473,0-44.395,19.969-44.395,44.391c0,24.469,19.922,44.391,44.395,44.391c24.469,0,44.391-19.922,44.391-44.391
				C298.273,312.245,278.352,292.276,253.883,292.276z"/>
		</g>
		<g>
			<path d="M255.055,178.421c0,1.219-0.938,2.203-2.157,2.203c-1.174,0-2.159-0.984-2.159-2.203c0-1.172,0.985-2.156,2.159-2.156
				C254.117,176.265,255.055,177.25,255.055,178.421z"/>
		</g>
		<g>
			<path d="M165.355,243.062c0,1.219-0.961,2.203-2.18,2.203c-1.172,0-2.18-0.984-2.18-2.203c0-1.172,1.008-2.156,2.18-2.156
				C164.395,240.906,165.355,241.89,165.355,243.062z"/>
		</g>
		<g>
			<path d="M165.355,253.704c0,1.219-0.961,2.155-2.18,2.155c-1.172,0-2.18-0.937-2.18-2.155s1.008-2.157,2.18-2.157
				C164.395,251.547,165.355,252.485,165.355,253.704z"/>
		</g>
		<g>
			<path d="M339.031,253.704c0,1.219-0.961,2.155-2.18,2.155s-2.156-0.937-2.156-2.155s0.938-2.157,2.156-2.157
				S339.031,252.485,339.031,253.704z"/>
		</g>
		<g>
			<path d="M252.193,331.089c0,1.266-0.963,2.203-2.182,2.203c-1.195,0-2.18-0.938-2.18-2.203c0-1.172,0.984-2.156,2.18-2.156
				C251.23,328.933,252.193,329.917,252.193,331.089z"/>
		</g>
		<g>
			<path d="M252.193,341.776c0,1.172-0.963,2.156-2.182,2.156c-1.195,0-2.18-0.984-2.18-2.156c0-1.266,0.984-2.203,2.18-2.203
				C251.23,339.573,252.193,340.511,252.193,341.776z"/>
		</g>
		<g>
			<path d="M259.93,336.386c0,1.172-0.984,2.109-2.18,2.109c-1.219,0-2.203-0.938-2.203-2.109c0-1.266,0.984-2.203,2.203-2.203
				C258.945,334.183,259.93,335.12,259.93,336.386z"/>
		</g>
		<g>
			<path d="M339.031,243.062c0,1.219-0.961,2.203-2.18,2.203s-2.156-0.984-2.156-2.203c0-1.172,0.938-2.156,2.156-2.156
				S339.031,241.89,339.031,243.062z"/>
		</g>
		<g>
			<path d="M349.648,243.062c0,1.219-0.984,2.203-2.18,2.203s-2.156-0.984-2.156-2.203c0-1.172,0.961-2.156,2.156-2.156
				S349.648,241.89,349.648,243.062z"/>
		</g>
		<g>
			<path d="M349.648,253.704c0,1.219-0.984,2.155-2.18,2.155s-2.156-0.937-2.156-2.155s0.961-2.157,2.156-2.157
				S349.648,252.485,349.648,253.704z"/>
		</g>
	</g>
</g>
</svg>
