<?xml version="1.0" encoding="UTF-8" standalone="no"?>
<!-- Generator: Adobe Illustrator 16.0.4, SVG Export Plug-In . SVG Version: 6.00 Build 0)  -->

<svg
   xmlns:dc="http://purl.org/dc/elements/1.1/"
   xmlns:cc="http://creativecommons.org/ns#"
   xmlns:rdf="http://www.w3.org/1999/02/22-rdf-syntax-ns#"
   xmlns:svg="http://www.w3.org/2000/svg"
   xmlns="http://www.w3.org/2000/svg"
   xmlns:sodipodi="http://sodipodi.sourceforge.net/DTD/sodipodi-0.dtd"
   xmlns:inkscape="http://www.inkscape.org/namespaces/inkscape"
   version="1.1"
   x="0px"
   y="0px"
   width="500px"
   height="500px"
   viewBox="0 0 500 500"
   enable-background="new 0 0 500 500"
   xml:space="preserve"
   id="svg4674"
   inkscape:version="0.91 r13725"
   sodipodi:docname="tap_outline_18.svg"><metadata
     id="metadata4746"><rdf:RDF><cc:Work
         rdf:about=""><dc:format>image/svg+xml</dc:format><dc:type
           rdf:resource="http://purl.org/dc/dcmitype/StillImage" /><dc:title></dc:title></cc:Work></rdf:RDF></metadata><defs
     id="defs4744" /><sodipodi:namedview
     pagecolor="#ffffff"
     bordercolor="#666666"
     borderopacity="1"
     objecttolerance="10"
     gridtolerance="10"
     guidetolerance="10"
     inkscape:pageopacity="0"
     inkscape:pageshadow="2"
     inkscape:window-width="2880"
     inkscape:window-height="1752"
     id="namedview4742"
     showgrid="false"
     inkscape:zoom="2.6700352"
     inkscape:cx="155.61164"
     inkscape:cy="277.10103"
     inkscape:window-x="0"
     inkscape:window-y="48"
     inkscape:window-maximized="1"
     inkscape:current-layer="svg4674" /><g
     id="Layer_1"
     display="none"><rect
       display="inline"
       width="500"
       height="500"
       id="rect4677" /></g><g
     id="g6112"
     transform="matrix(1.3257777,0,0,1.3257777,-82.752294,-78.70602)"><g
       id="g4682"><path
         inkscape:connector-curvature="0"
         id="path4684"
         d="m 250.973,424.979 c -97.594,0 -177.047,-79.453 -177.047,-177.042 0,-97.641 79.453,-177.047 177.047,-177.047 97.645,0 177.074,79.406 177.074,177.047 0,97.589 -79.43,177.042 -177.074,177.042 z m 0,-349.308 c -94.969,0 -172.219,77.25 -172.219,172.266 0,94.964 77.25,172.214 172.219,172.214 94.973,0 172.246,-77.25 172.246,-172.214 0,-95.016 -77.274,-172.266 -172.246,-172.266 z" /></g><path
       d="m 250.973,411.479 c -90.141,0 -163.547,-73.359 -163.547,-163.542 0,-90.234 73.406,-163.547 163.547,-163.547 90.191,0 163.551,73.312 163.551,163.547 -10e-4,90.183 -73.36,163.542 -163.551,163.542 z m 0,-324.229 c -88.594,0 -160.641,72.094 -160.641,160.688 0,88.542 72.047,160.636 160.641,160.636 88.598,0 160.645,-72.094 160.645,-160.636 C 411.617,159.343 339.57,87.25 250.973,87.25 Z"
       id="path4688"
       inkscape:connector-curvature="0" /><g
       style="fill:#000000;fill-opacity:1"
       id="g4690"><path
         style="fill:#000000;fill-opacity:1"
         inkscape:connector-curvature="0"
         id="path4692"
         d="m 163.176,294.245 c -25.547,0 -46.266,-20.81 -46.266,-46.308 0,-25.594 20.719,-46.312 46.266,-46.312 25.547,0 46.312,20.719 46.312,46.312 0,25.499 -20.765,46.308 -46.312,46.308 z m 0,-90.745 c -24.469,0 -44.391,19.922 -44.391,44.438 0,24.467 19.922,44.339 44.391,44.339 24.469,0 44.391,-19.872 44.391,-44.339 C 207.566,223.421 187.645,203.5 163.176,203.5 Z" /></g><g
       id="g4694"><path
         inkscape:connector-curvature="0"
         id="path4696"
         d="m 342.664,294.245 c -25.547,0 -46.312,-20.81 -46.312,-46.308 0,-25.594 20.766,-46.312 46.312,-46.312 25.523,0 46.312,20.719 46.312,46.312 10e-4,25.499 -20.788,46.308 -46.312,46.308 z m 0,-90.745 c -24.492,0 -44.391,19.922 -44.391,44.438 0,24.467 19.898,44.339 44.391,44.339 24.422,0 44.344,-19.872 44.344,-44.339 0,-24.517 -19.922,-44.438 -44.344,-44.438 z" /></g><g
       id="g4698"><path
         inkscape:connector-curvature="0"
         id="path4700"
         d="m 253.883,382.979 c -25.551,0 -46.316,-20.766 -46.316,-46.312 0,-25.5 20.766,-46.312 46.316,-46.312 25.547,0 46.312,20.812 46.312,46.312 0,25.547 -20.765,46.312 -46.312,46.312 z m 0,-90.703 c -24.473,0 -44.395,19.969 -44.395,44.391 0,24.469 19.922,44.391 44.395,44.391 24.469,0 44.391,-19.922 44.391,-44.391 -10e-4,-24.422 -19.922,-44.391 -44.391,-44.391 z" /></g><g
       id="g4702"><path
         inkscape:connector-curvature="0"
         id="path4704"
         d="m 255.055,178.421 c 0,1.219 -0.938,2.203 -2.157,2.203 -1.174,0 -2.159,-0.984 -2.159,-2.203 0,-1.172 0.985,-2.156 2.159,-2.156 1.219,0 2.157,0.985 2.157,2.156 z" /></g><g
       id="g4706"><path
         inkscape:connector-curvature="0"
         id="path4708"
         d="m 165.355,243.062 c 0,1.219 -0.961,2.203 -2.18,2.203 -1.172,0 -2.18,-0.984 -2.18,-2.203 0,-1.172 1.008,-2.156 2.18,-2.156 1.22,0 2.18,0.984 2.18,2.156 z" /></g><g
       id="g4710"><path
         inkscape:connector-curvature="0"
         id="path4712"
         d="m 165.355,253.704 c 0,1.219 -0.961,2.155 -2.18,2.155 -1.172,0 -2.18,-0.937 -2.18,-2.155 0,-1.218 1.008,-2.157 2.18,-2.157 1.22,0 2.18,0.938 2.18,2.157 z" /></g><g
       id="g4714"><path
         inkscape:connector-curvature="0"
         id="path4716"
         d="m 339.031,253.704 c 0,1.219 -0.961,2.155 -2.18,2.155 -1.219,0 -2.156,-0.937 -2.156,-2.155 0,-1.218 0.938,-2.157 2.156,-2.157 1.218,0 2.18,0.938 2.18,2.157 z" /></g><g
       id="g4718"><path
         inkscape:connector-curvature="0"
         id="path4720"
         d="m 252.193,331.089 c 0,1.266 -0.963,2.203 -2.182,2.203 -1.195,0 -2.18,-0.938 -2.18,-2.203 0,-1.172 0.984,-2.156 2.18,-2.156 1.219,0 2.182,0.984 2.182,2.156 z" /></g><g
       id="g4722"><path
         inkscape:connector-curvature="0"
         id="path4724"
         d="m 252.193,341.776 c 0,1.172 -0.963,2.156 -2.182,2.156 -1.195,0 -2.18,-0.984 -2.18,-2.156 0,-1.266 0.984,-2.203 2.18,-2.203 1.219,0 2.182,0.938 2.182,2.203 z" /></g><g
       id="g4726"><path
         inkscape:connector-curvature="0"
         id="path4728"
         d="m 259.93,336.386 c 0,1.172 -0.984,2.109 -2.18,2.109 -1.219,0 -2.203,-0.938 -2.203,-2.109 0,-1.266 0.984,-2.203 2.203,-2.203 1.195,0 2.18,0.937 2.18,2.203 z" /></g><g
       id="g4730"><path
         inkscape:connector-curvature="0"
         id="path4732"
         d="m 339.031,243.062 c 0,1.219 -0.961,2.203 -2.18,2.203 -1.219,0 -2.156,-0.984 -2.156,-2.203 0,-1.172 0.938,-2.156 2.156,-2.156 1.218,0 2.18,0.984 2.18,2.156 z" /></g><g
       id="g4734"><path
         inkscape:connector-curvature="0"
         id="path4736"
         d="m 349.648,243.062 c 0,1.219 -0.984,2.203 -2.18,2.203 -1.196,0 -2.156,-0.984 -2.156,-2.203 0,-1.172 0.961,-2.156 2.156,-2.156 1.195,0 2.18,0.984 2.18,2.156 z" /></g><g
       id="g4738"><path
         inkscape:connector-curvature="0"
         id="path4740"
         d="m 349.648,253.704 c 0,1.219 -0.984,2.155 -2.18,2.155 -1.196,0 -2.156,-0.937 -2.156,-2.155 0,-1.218 0.961,-2.157 2.156,-2.157 1.195,0 2.18,0.938 2.18,2.157 z" /></g></g><path
     style="opacity:1;fill:#ff0000;fill-opacity:1;stroke:none;stroke-width:2;stroke-miterlimit:4;stroke-dasharray:none;stroke-opacity:1"
     d="m 365.04708,308.28215 c -26.2151,-3.17945 -46.92923,-22.83453 -51.3533,-48.72774 -1.09421,-6.4042 -0.85377,-16.17357 0.54265,-22.04889 4.28922,-18.04653 15.22186,-31.9883 31.48305,-40.14855 8.02242,-4.02584 16.28693,-5.91929 25.8254,-5.91675 12.11679,0.003 22.28857,3.04244 32.26573,9.64068 19.37456,12.81307 29.46226,36.17702 25.45667,58.95974 -4.26044,24.23217 -23.40509,43.3555 -47.75193,47.69875 -3.95458,0.70547 -12.73952,0.995 -16.46827,0.54276 z m 0.34552,-48.10275 c 1.01203,-0.52335 1.51098,-1.48537 1.522,-2.93461 0.008,-1.11029 -1.68938,-2.51103 -3.04357,-2.51103 -2.68321,0 -3.94233,3.15526 -2.02445,5.07313 1.05128,1.05129 2.03381,1.1545 3.54602,0.37251 z m 14.39778,-0.22945 c 0.76681,-0.60317 0.98683,-1.10418 0.98683,-2.24716 0,-1.87161 -1.02293,-2.96903 -2.76746,-2.96903 -1.60035,0 -2.78105,0.96323 -3.0804,2.51305 -0.19433,1.00613 -0.0465,1.3879 0.90638,2.34079 1.3368,1.3368 2.57196,1.44998 3.95465,0.36235 z m -13.74542,-14.41962 c 0.80301,-0.80301 0.92705,-1.19358 0.74342,-2.34079 -0.12123,-0.75733 -0.58128,-1.6719 -1.02235,-2.03238 -1.88075,-1.53714 -4.83875,-0.0741 -4.83875,2.39326 0,2.71934 3.15691,3.94068 5.11768,1.97991 z m 13.98319,0.21478 c 1.14535,-1.14535 1.02126,-3.47678 -0.23777,-4.46714 -1.11585,-0.87773 -1.93274,-0.96575 -3.2773,-0.35313 -1.86228,0.84852 -2.14834,3.84673 -0.47859,5.01627 1.13092,0.79213 3.10228,0.69538 3.99366,-0.196 z"
     id="path6350"
     inkscape:connector-curvature="0" /></svg>