<?xml version="1.0" encoding="utf-8"?>
<!-- Generator: Adobe Illustrator 16.0.4, SVG Export Plug-In . SVG Version: 6.00 Build 0)  -->
<!DOCTYPE svg PUBLIC "-//W3C//DTD SVG 1.1//EN" "http://www.w3.org/Graphics/SVG/1.1/DTD/svg11.dtd">
<svg version="1.1" xmlns="http://www.w3.org/2000/svg" xmlns:xlink="http://www.w3.org/1999/xlink" x="0px" y="0px" width="500px"
	 height="500px" viewBox="0 0 500 500" enable-background="new 0 0 500 500" xml:space="preserve">
<g id="Layer_1" display="none">
	<rect display="inline" width="500" height="500"/>
</g>
<g id="Layer_2">
	<path d="M251.758,62.188c-102.55,0-185.691,83.141-185.691,185.668c0,102.523,83.141,185.711,185.691,185.711
		c102.531,0,185.672-83.188,185.672-185.711C437.43,145.328,354.289,62.188,251.758,62.188z M251.758,416.32
		c-92.925,0-168.488-75.59-168.488-168.465c0-92.922,75.562-168.465,168.488-168.465c92.93,0,168.469,75.543,168.469,168.465
		C420.227,340.73,344.688,416.32,251.758,416.32z"/>
	<path d="M251.758,95.727c-83.847,0-152.113,68.262-152.113,152.129c0,83.82,68.266,152.082,152.113,152.082
		c83.844,0,152.086-68.262,152.086-152.082C403.844,163.988,335.602,95.727,251.758,95.727z M172.348,296
		c-23.258,0-42.094-18.839-42.094-42.046c0-23.255,18.836-42.095,42.094-42.095c23.203,0,42.07,18.84,42.07,42.095
		C214.418,277.161,195.551,296,172.348,296z M254.648,376.773c-23.237,0-42.05-18.887-42.05-42.094
		c0-23.254,18.813-42.094,42.05-42.094c23.258,0,42.07,18.84,42.07,42.094C296.719,357.887,277.906,376.773,254.648,376.773z
		 M335.242,296c-23.211,0-42.07-18.839-42.07-42.046c0-23.255,18.859-42.095,42.07-42.095c23.25,0,42.07,18.84,42.07,42.095
		C377.312,277.161,358.492,296,335.242,296z"/>
</g>
</svg>
