<?xml version="1.0" encoding="utf-8"?>
<!-- Generator: Adobe Illustrator 16.0.4, SVG Export Plug-In . SVG Version: 6.00 Build 0)  -->
<!DOCTYPE svg PUBLIC "-//W3C//DTD SVG 1.1//EN" "http://www.w3.org/Graphics/SVG/1.1/DTD/svg11.dtd">
<svg version="1.1" xmlns="http://www.w3.org/2000/svg" xmlns:xlink="http://www.w3.org/1999/xlink" x="0px" y="0px" width="500px"
	 height="500px" viewBox="0 0 500 500" enable-background="new 0 0 500 500" xml:space="preserve">
<g id="Layer_1" display="none">
	<rect display="inline" width="500" height="500"/>
</g>
<g id="Layer_2">
	<g>
		<path d="M207.541,430.849c0,2.594,6.508,7.051,15.836,9.191l2.367,0.547l1.094,2.227c1.18,2.324,5.688,7.375,9.414,11.469
			c5.781,1.273,20.438,1.273,26.257,0c3.866-4.277,8.28-9.191,9.468-11.512l1.047-2.184l2.366-0.547
			c9.327-2.141,15.834-6.598,15.834-9.191v-55.473h-83.683V430.849z"/>
		<path d="M357.291,92.138c4.148-12.512,5.461-26.801-16.289-37.449c-19.523-9.559-60.293-15.246-88.367-15.246h-6.282
			c-28.117,0-68.891,5.688-88.414,15.246c-21.758,10.648-20.391,24.98-16.25,37.543c10.789,30.988,20.164,49.418,23.164,55.016
			h169.282C337.775,140.239,346.916,121.856,357.291,92.138z"/>
		<path d="M193.384,339.196l11.469,13.059h89.285l11.42-13.059c-0.047-13.242,0.812-90.012,24.796-169.059H168.4
			C192.478,249.731,193.431,325.954,193.384,339.196z"/>
	</g>
</g>
</svg>
