<?xml version="1.0" encoding="utf-8"?>
<!-- Generator: Adobe Illustrator 16.0.4, SVG Export Plug-In . SVG Version: 6.00 Build 0)  -->
<!DOCTYPE svg PUBLIC "-//W3C//DTD SVG 1.1//EN" "http://www.w3.org/Graphics/SVG/1.1/DTD/svg11.dtd">
<svg version="1.1" xmlns="http://www.w3.org/2000/svg" xmlns:xlink="http://www.w3.org/1999/xlink" x="0px" y="0px" width="500px"
	 height="500px" viewBox="0 0 500 500" enable-background="new 0 0 500 500" xml:space="preserve">
<g id="Layer_1" display="none">
	<rect display="inline" width="500" height="500"/>
</g>
<g id="Layer_2">
	<g>
		<path fill="none" stroke="#000000" stroke-width="3.8878" stroke-miterlimit="10" d="M209.823,131.959
			c95.88,0,173.598,77.717,173.598,173.606c0,95.865-77.718,173.584-173.598,173.584c-95.847,0-173.603-77.719-173.603-173.584
			C36.22,209.677,113.976,131.959,209.823,131.959z"/>
		
			<path fill="none" stroke="#000000" stroke-width="2.5919" stroke-linecap="round" stroke-linejoin="round" stroke-miterlimit="10" d="
			M284.974,17.926c78.059,20.351,143.59,71.605,182.79,139.907"/>
		
			<path fill="none" stroke="#000000" stroke-width="2.5919" stroke-linecap="round" stroke-linejoin="round" stroke-miterlimit="10" d="
			M282.98,60.563c59.626,16.667,109.533,56.609,139.317,109.42"/>
		
			<path fill="none" stroke="#000000" stroke-width="2.5919" stroke-linecap="round" stroke-linejoin="round" stroke-miterlimit="10" d="
			M289.662,106.579c38.555,15.092,70.941,42.389,92.468,77.148"/>
		<path fill="none" stroke="#000000" stroke-width="5.8317" stroke-miterlimit="10" d="M166.503,305.528
			c0-23.9,19.401-43.302,43.339-43.302c23.918,0,43.316,19.401,43.316,43.302c0,23.956-19.398,43.356-43.316,43.356
			C185.904,348.885,166.503,329.484,166.503,305.528z"/>
		<path d="M117.146,321.929c-9.036,0-16.382-7.326-16.382-16.363c0-9.074,7.346-16.402,16.382-16.402
			c9.055,0,16.382,7.328,16.382,16.402C133.528,314.603,126.201,321.929,117.146,321.929z"/>
		<path d="M149.912,262.207c-9.055,0-16.383-7.326-16.383-16.366c0-9.036,7.328-16.364,16.383-16.364
			c9.055,0,16.382,7.328,16.382,16.364C166.294,254.881,158.966,262.207,149.912,262.207z"/>
		<path d="M209.823,229.477c-9.036,0-16.364-7.347-16.364-16.402c0-9.036,7.328-16.363,16.364-16.363
			c9.055,0,16.382,7.328,16.382,16.363C226.205,222.13,218.877,229.477,209.823,229.477z"/>
	</g>
</g>
</svg>
