<?xml version="1.0" encoding="UTF-8" standalone="no"?>
<!-- Generator: Adobe Illustrator 16.0.4, SVG Export Plug-In . SVG Version: 6.00 Build 0)  -->

<svg
   xmlns:dc="http://purl.org/dc/elements/1.1/"
   xmlns:cc="http://creativecommons.org/ns#"
   xmlns:rdf="http://www.w3.org/1999/02/22-rdf-syntax-ns#"
   xmlns:svg="http://www.w3.org/2000/svg"
   xmlns="http://www.w3.org/2000/svg"
   xmlns:sodipodi="http://sodipodi.sourceforge.net/DTD/sodipodi-0.dtd"
   xmlns:inkscape="http://www.inkscape.org/namespaces/inkscape"
   version="1.1"
   x="0px"
   y="0px"
   width="500px"
   height="500px"
   viewBox="0 0 500 500"
   enable-background="new 0 0 500 500"
   xml:space="preserve"
   id="svg4203"
   inkscape:version="0.91 r13725"
   sodipodi:docname="dimmer_outline_3.svg"><metadata
     id="metadata4227"><rdf:RDF><cc:Work
         rdf:about=""><dc:format>image/svg+xml</dc:format><dc:type
           rdf:resource="http://purl.org/dc/dcmitype/StillImage" /><dc:title></dc:title></cc:Work></rdf:RDF></metadata><defs
     id="defs4225" /><sodipodi:namedview
     pagecolor="#ffffff"
     bordercolor="#666666"
     borderopacity="1"
     objecttolerance="10"
     gridtolerance="10"
     guidetolerance="10"
     inkscape:pageopacity="0"
     inkscape:pageshadow="2"
     inkscape:window-width="2880"
     inkscape:window-height="1752"
     id="namedview4223"
     showgrid="false"
     inkscape:zoom="1.3350176"
     inkscape:cx="155.86391"
     inkscape:cy="257.849"
     inkscape:window-x="0"
     inkscape:window-y="48"
     inkscape:window-maximized="1"
     inkscape:current-layer="svg4203"><inkscape:grid
       type="xygrid"
       id="grid5483" /></sodipodi:namedview><g
     id="Layer_1"
     display="none"><rect
       display="inline"
       width="500"
       height="500"
       id="rect4206" /></g><path
     style="opacity:1;fill:#ffffff;fill-opacity:1;stroke:none;stroke-width:2;stroke-miterlimit:4;stroke-dasharray:none;stroke-opacity:1"
     d="m 204.25539,375.92433 0,-9.1759 46.44133,0 46.44134,0 0,5.22042 0,5.22043 -1.59174,0.21308 c -0.87546,0.11719 -18.44545,1.64601 -39.04443,3.39737 -20.59898,1.75137 -40.17012,3.43545 -43.49141,3.74241 -3.3213,0.30696 -6.64991,0.5581 -7.39691,0.5581 l -1.35818,0 0,-9.17591 z"
     id="path4809"
     inkscape:connector-curvature="0" /><path
     style="opacity:1;fill:#ffffff;fill-opacity:1;stroke:none;stroke-width:2;stroke-miterlimit:4;stroke-dasharray:none;stroke-opacity:1"
     d="m 204.25539,395.77426 c 0,-4.41398 0.0985,-5.43064 0.52613,-5.43064 0.28938,0 10.2752,-0.83766 22.19072,-1.86147 11.91552,-1.02381 31.60827,-2.70662 43.76167,-3.73958 12.1534,-1.03297 23.06618,-1.98149 24.25062,-2.10784 l 2.15353,-0.22972 0,5.46741 c 0,5.10027 -0.0473,5.46742 -0.7037,5.46742 -0.38704,0 -12.47957,1.01676 -26.8723,2.25947 -34.48572,2.97761 -65.04861,5.60559 -65.19182,5.60559 -0.0632,0 -0.11485,-2.44379 -0.11485,-5.43064 z"
     id="path4811"
     inkscape:connector-curvature="0" /><path
     style="opacity:1;fill:#ffffff;fill-opacity:1;stroke:none;stroke-width:2;stroke-miterlimit:4;stroke-dasharray:none;stroke-opacity:1"
     d="m 204.25539,411.70862 0,-5.2264 1.21721,-0.19383 c 0.66947,-0.10661 10.31822,-0.95832 21.44167,-1.8927 11.12344,-0.93437 30.92655,-2.62313 44.00691,-3.7528 13.08035,-1.12966 24.3302,-2.05523 24.99967,-2.05681 l 1.21721,-0.003 0,5.24338 c 0,3.43824 -0.13645,5.24338 -0.39634,5.24338 -0.21798,0 -5.23196,0.42046 -11.14217,0.93437 -12.63374,1.09853 -43.36714,3.75314 -64.99784,5.6142 -8.41566,0.72407 -15.53635,1.31649 -15.82376,1.31649 -0.4221,0 -0.52256,-1.00477 -0.52256,-5.22641 z"
     id="path4813"
     inkscape:connector-curvature="0" /><path
     style="opacity:1;fill:#ffffff;fill-opacity:1;stroke:none;stroke-width:2;stroke-miterlimit:4;stroke-dasharray:none;stroke-opacity:1"
     d="m 241.89534,455.28156 c -6.29502,-0.90283 -5.99951,-0.78648 -8.29722,-3.26667 -3.39313,-3.6626 -7.48439,-8.68516 -8.53487,-10.47767 -0.88809,-1.51542 -1.16651,-1.70034 -3.48957,-2.31771 -7.71227,-2.0496 -13.99696,-5.5836 -16.25138,-9.13846 -0.95022,-1.49834 -1.06691,-2.01955 -1.06691,-4.76554 l 0,-3.0832 1.96626,-0.2202 c 1.08145,-0.1211 7.86507,-0.72117 15.07471,-1.33347 7.20965,-0.61231 26.88325,-2.29499 43.71913,-3.73929 16.83588,-1.44431 30.95087,-2.62601 31.36663,-2.62601 0.73189,0 0.75594,0.22794 0.75594,7.16544 0,6.58545 -0.0626,7.26666 -0.7729,8.41601 -2.03968,3.30027 -8.52201,7.08421 -15.4612,9.02518 -3.45581,0.96663 -3.73059,1.11598 -4.37419,2.37756 -0.80973,1.5872 -3.07534,4.44373 -7.41177,9.34492 -2.9696,3.35635 -3.26774,3.58599 -5.26037,4.05171 -2.05899,0.48122 -19.45793,0.94658 -21.96229,0.5874 z"
     id="path4815"
     inkscape:connector-curvature="0" /><rect
     style="opacity:1;fill:none;fill-opacity:1;stroke:#000000;stroke-width:4;stroke-miterlimit:4;stroke-dasharray:none;stroke-opacity:1"
     id="rect5571"
     width="160"
     height="420"
     x="170"
     y="40"
     rx="5"
     ry="5" /><path
     inkscape:connector-curvature="0"
     id="path5577"
     d="m 168.07125,250 c 163.10844,0 163.10844,0 163.10844,0"
     style="fill:none;fill-rule:evenodd;stroke:#000000;stroke-width:4.17111921;stroke-linecap:butt;stroke-linejoin:miter;stroke-miterlimit:4;stroke-dasharray:none;stroke-opacity:1" /><path
     style="fill:none;fill-rule:evenodd;stroke:#000000;stroke-width:4.17111921;stroke-linecap:butt;stroke-linejoin:miter;stroke-miterlimit:4;stroke-dasharray:none;stroke-opacity:1"
     d="m 168.07125,174 c 163.10844,0 163.10844,0 163.10844,0"
     id="path5581"
     inkscape:connector-curvature="0" /><path
     style="fill:none;fill-rule:evenodd;stroke:#000000;stroke-width:4.17111921;stroke-linecap:butt;stroke-linejoin:miter;stroke-miterlimit:4;stroke-dasharray:none;stroke-opacity:1"
     d="m 168.07125,326 c 163.10844,0 163.10844,0 163.10844,0"
     id="path5583"
     inkscape:connector-curvature="0" /><path
     style="fill:none;fill-rule:evenodd;stroke:#000000;stroke-width:5;stroke-linecap:round;stroke-linejoin:miter;stroke-miterlimit:4;stroke-dasharray:none;stroke-opacity:1"
     d="m 250,95 c 0,30 0,30 0,30"
     id="path5585"
     inkscape:connector-curvature="0" /><circle
     style="opacity:1;fill:none;fill-opacity:1;stroke:#000000;stroke-width:5;stroke-miterlimit:4;stroke-dasharray:none;stroke-opacity:1"
     id="path5587"
     cx="250"
     cy="390"
     r="12.5" /><g
     id="g5624"><circle
       r="7.5"
       cy="210"
       cx="250"
       id="path5591"
       style="opacity:1;fill:#000000;fill-opacity:1;stroke:none;stroke-width:5;stroke-linecap:round;stroke-miterlimit:4;stroke-dasharray:none;stroke-opacity:1" /><path
       inkscape:connector-curvature="0"
       id="path5608"
       d="m 240,210 c -10,0 -10,0 -10,0"
       style="fill:none;fill-rule:evenodd;stroke:#000000;stroke-width:3;stroke-linecap:round;stroke-linejoin:miter;stroke-opacity:1;stroke-miterlimit:4;stroke-dasharray:none" /><path
       style="fill:none;fill-rule:evenodd;stroke:#000000;stroke-width:3;stroke-linecap:round;stroke-linejoin:miter;stroke-miterlimit:4;stroke-dasharray:none;stroke-opacity:1"
       d="m 270,210 c -10,0 -10,0 -10,0"
       id="path5610"
       inkscape:connector-curvature="0" /><path
       style="fill:none;fill-rule:evenodd;stroke:#000000;stroke-width:3;stroke-linecap:round;stroke-linejoin:miter;stroke-miterlimit:4;stroke-dasharray:none;stroke-opacity:1"
       d="m 242.92893,217.07107 c -7.07107,7.07107 -7.07107,7.07107 -7.07107,7.07107"
       id="path5612"
       inkscape:connector-curvature="0" /><path
       inkscape:connector-curvature="0"
       id="path5614"
       d="m 264.14214,195.85786 c -7.07107,7.07107 -7.07107,7.07107 -7.07107,7.07107"
       style="fill:none;fill-rule:evenodd;stroke:#000000;stroke-width:3;stroke-linecap:round;stroke-linejoin:miter;stroke-miterlimit:4;stroke-dasharray:none;stroke-opacity:1" /><path
       inkscape:connector-curvature="0"
       id="path5616"
       d="m 250,220 c 0,10.00001 0,10.00001 0,10.00001"
       style="fill:none;fill-rule:evenodd;stroke:#000000;stroke-width:3;stroke-linecap:round;stroke-linejoin:miter;stroke-miterlimit:4;stroke-dasharray:none;stroke-opacity:1" /><path
       style="fill:none;fill-rule:evenodd;stroke:#000000;stroke-width:3;stroke-linecap:round;stroke-linejoin:miter;stroke-miterlimit:4;stroke-dasharray:none;stroke-opacity:1"
       d="M 250,189.99999 C 250,200 250,200 250,200"
       id="path5618"
       inkscape:connector-curvature="0" /><path
       style="fill:none;fill-rule:evenodd;stroke:#000000;stroke-width:3;stroke-linecap:round;stroke-linejoin:miter;stroke-miterlimit:4;stroke-dasharray:none;stroke-opacity:1"
       d="m 257.07107,217.07107 c 7.07107,7.07107 7.07107,7.07107 7.07107,7.07107"
       id="path5620"
       inkscape:connector-curvature="0" /><path
       inkscape:connector-curvature="0"
       id="path5622"
       d="m 235.85786,195.85786 c 7.07107,7.07107 7.07107,7.07107 7.07107,7.07107"
       style="fill:none;fill-rule:evenodd;stroke:#000000;stroke-width:3;stroke-linecap:round;stroke-linejoin:miter;stroke-miterlimit:4;stroke-dasharray:none;stroke-opacity:1" /></g><g
     id="g5635"
     transform="matrix(0.69851611,0,0,0.69851611,75.370972,143.31162)"><circle
       style="opacity:1;fill:#000000;fill-opacity:1;stroke:none;stroke-width:5;stroke-linecap:round;stroke-miterlimit:4;stroke-dasharray:none;stroke-opacity:1"
       id="circle5637"
       cx="250"
       cy="210"
       r="7.5" /><path
       style="fill:none;fill-rule:evenodd;stroke:#000000;stroke-width:3;stroke-linecap:round;stroke-linejoin:miter;stroke-miterlimit:4;stroke-dasharray:none;stroke-opacity:1"
       d="m 240,210 c -10,0 -10,0 -10,0"
       id="path5639"
       inkscape:connector-curvature="0" /><path
       inkscape:connector-curvature="0"
       id="path5641"
       d="m 270,210 c -10,0 -10,0 -10,0"
       style="fill:none;fill-rule:evenodd;stroke:#000000;stroke-width:3;stroke-linecap:round;stroke-linejoin:miter;stroke-miterlimit:4;stroke-dasharray:none;stroke-opacity:1" /><path
       inkscape:connector-curvature="0"
       id="path5643"
       d="m 242.92893,217.07107 c -7.07107,7.07107 -7.07107,7.07107 -7.07107,7.07107"
       style="fill:none;fill-rule:evenodd;stroke:#000000;stroke-width:3;stroke-linecap:round;stroke-linejoin:miter;stroke-miterlimit:4;stroke-dasharray:none;stroke-opacity:1" /><path
       style="fill:none;fill-rule:evenodd;stroke:#000000;stroke-width:3;stroke-linecap:round;stroke-linejoin:miter;stroke-miterlimit:4;stroke-dasharray:none;stroke-opacity:1"
       d="m 264.14214,195.85786 c -7.07107,7.07107 -7.07107,7.07107 -7.07107,7.07107"
       id="path5645"
       inkscape:connector-curvature="0" /><path
       style="fill:none;fill-rule:evenodd;stroke:#000000;stroke-width:3;stroke-linecap:round;stroke-linejoin:miter;stroke-miterlimit:4;stroke-dasharray:none;stroke-opacity:1"
       d="m 250,220 c 0,10.00001 0,10.00001 0,10.00001"
       id="path5647"
       inkscape:connector-curvature="0" /><path
       inkscape:connector-curvature="0"
       id="path5649"
       d="M 250,189.99999 C 250,200 250,200 250,200"
       style="fill:none;fill-rule:evenodd;stroke:#000000;stroke-width:3;stroke-linecap:round;stroke-linejoin:miter;stroke-miterlimit:4;stroke-dasharray:none;stroke-opacity:1" /><path
       inkscape:connector-curvature="0"
       id="path5651"
       d="m 257.07107,217.07107 c 7.07107,7.07107 7.07107,7.07107 7.07107,7.07107"
       style="fill:none;fill-rule:evenodd;stroke:#000000;stroke-width:3;stroke-linecap:round;stroke-linejoin:miter;stroke-miterlimit:4;stroke-dasharray:none;stroke-opacity:1" /><path
       style="fill:none;fill-rule:evenodd;stroke:#000000;stroke-width:3;stroke-linecap:round;stroke-linejoin:miter;stroke-miterlimit:4;stroke-dasharray:none;stroke-opacity:1"
       d="m 235.85786,195.85786 c 7.07107,7.07107 7.07107,7.07107 7.07107,7.07107"
       id="path5653"
       inkscape:connector-curvature="0" /></g><path
     style="opacity:1;fill:#ff0000;fill-opacity:1;stroke:none;stroke-width:3;stroke-linecap:round;stroke-miterlimit:4;stroke-dasharray:none;stroke-opacity:1"
     d="m 172.4929,288.2178 0,-35.58005 77.52707,0 77.52707,0 0,35.58005 0,35.58006 -77.52707,0 -77.52707,0 0,-35.58006 z m 78.52731,12.00206 c -0.31502,-6.0846 0.75468,-6.54197 4.86676,-2.08089 3.07515,3.33615 4.99428,4.0709 4.99428,1.91209 0,-1.53271 -4.37127,-6.21535 -5.80206,-6.21535 -0.71919,0 -0.81434,-0.35654 -0.32735,-1.22674 0.51522,-0.92064 1.87959,-1.24773 5.46786,-1.31085 3.71334,-0.0653 4.78135,-0.33507 4.78135,-1.20768 0,-0.8739 -0.99874,-1.12358 -4.49432,-1.12358 -5.9003,0 -6.51769,-1.06363 -2.64714,-4.56045 2.97617,-2.68879 4.00419,-5.55178 1.99348,-5.55178 -0.5655,0 -2.36903,1.45465 -4.00784,3.23255 -3.94781,4.28287 -5.0762,3.77243 -5.0762,-2.29623 0,-2.62169 -0.32959,-4.68159 -0.74906,-4.68159 -0.41947,0 -0.74905,2.0599 -0.74905,4.68159 0,6.06866 -1.1284,6.5791 -5.0762,2.29623 -1.63882,-1.7779 -3.42245,-3.23255 -3.96364,-3.23255 -2.26614,0 -1.74241,1.77426 1.47283,4.9895 2.01537,2.01537 3.1978,3.77363 2.87392,4.27347 -0.30938,0.47747 -2.51781,0.84926 -5.04461,0.84926 -3.49559,0 -4.49432,0.24968 -4.49432,1.12358 0,0.8773 1.01273,1.12358 4.62029,1.12358 3.58978,0 4.80244,0.29237 5.43698,1.31084 0.63038,1.01179 0.5788,1.31085 -0.22607,1.31085 -1.38775,0 -6.63369,5.85519 -6.06719,6.77182 0.88238,1.4277 2.52895,0.65902 5.34824,-2.49675 4.02927,-4.51018 5.18535,-4.00936 4.86859,2.10908 -0.21401,4.13371 -0.066,4.85165 1.00023,4.85165 1.06623,0 1.21424,-0.71794 1.00024,-4.85165 z"
     id="path5716"
     inkscape:connector-curvature="0" /></svg>