<?xml version="1.0" encoding="UTF-8" standalone="no"?>
<!-- Generator: Adobe Illustrator 16.0.4, SVG Export Plug-In . SVG Version: 6.00 Build 0)  -->

<svg
   xmlns:dc="http://purl.org/dc/elements/1.1/"
   xmlns:cc="http://creativecommons.org/ns#"
   xmlns:rdf="http://www.w3.org/1999/02/22-rdf-syntax-ns#"
   xmlns:svg="http://www.w3.org/2000/svg"
   xmlns="http://www.w3.org/2000/svg"
   xmlns:sodipodi="http://sodipodi.sourceforge.net/DTD/sodipodi-0.dtd"
   xmlns:inkscape="http://www.inkscape.org/namespaces/inkscape"
   version="1.1"
   x="0px"
   y="0px"
   width="500px"
   height="500px"
   viewBox="0 0 500 500"
   enable-background="new 0 0 500 500"
   xml:space="preserve"
   id="svg4911"
   inkscape:version="0.91 r13725"
   sodipodi:docname="group_filled.svg"><metadata
     id="metadata4929"><rdf:RDF><cc:Work
         rdf:about=""><dc:format>image/svg+xml</dc:format><dc:type
           rdf:resource="http://purl.org/dc/dcmitype/StillImage" /><dc:title></dc:title></cc:Work></rdf:RDF></metadata><defs
     id="defs4927" /><sodipodi:namedview
     pagecolor="#ffffff"
     bordercolor="#666666"
     borderopacity="1"
     objecttolerance="10"
     gridtolerance="10"
     guidetolerance="10"
     inkscape:pageopacity="0"
     inkscape:pageshadow="2"
     inkscape:window-width="2880"
     inkscape:window-height="1752"
     id="namedview4925"
     showgrid="true"
     inkscape:zoom="2.6700352"
     inkscape:cx="324.05613"
     inkscape:cy="267.43217"
     inkscape:window-x="0"
     inkscape:window-y="48"
     inkscape:window-maximized="1"
     inkscape:current-layer="svg4911"><inkscape:grid
       type="xygrid"
       id="grid5481" /></sodipodi:namedview><g
     id="Layer_1"
     display="none"><rect
       display="inline"
       width="500"
       height="500"
       id="rect4914" /></g><g
     id="Layer_2"><g
       id="g4917"><path
         d="M207.541,430.849c0,2.594,6.508,7.051,15.836,9.191l2.367,0.547l1.094,2.227c1.18,2.324,5.688,7.375,9.414,11.469    c5.781,1.273,20.438,1.273,26.257,0c3.866-4.277,8.28-9.191,9.468-11.512l1.047-2.184l2.366-0.547    c9.327-2.141,15.834-6.598,15.834-9.191v-55.473h-83.683V430.849z"
         id="path4919" /><path
         d="M357.291,92.138c4.148-12.512,5.461-26.801-16.289-37.449c-19.523-9.559-60.293-15.246-88.367-15.246h-6.282    c-28.117,0-68.891,5.688-88.414,15.246c-21.758,10.648-20.391,24.98-16.25,37.543c10.789,30.988,20.164,49.418,23.164,55.016    h169.282C337.775,140.239,346.916,121.856,357.291,92.138z"
         id="path4921" /><path
         d="M193.384,339.196l11.469,13.059h89.285l11.42-13.059c-0.047-13.242,0.812-90.012,24.796-169.059H168.4    C192.478,249.731,193.431,325.954,193.384,339.196z"
         id="path4923" /></g></g><g
     id="g5471"
     transform="matrix(0.93575135,0,0,0.93575135,132.84342,44.078923)"
     style="fill:#000000;fill-opacity:1"><g
       id="g5473"
       style="fill:#000000;fill-opacity:1"><path
         id="path5475"
         d="m 207.541,430.849 c 0,2.594 6.508,7.051 15.836,9.191 l 2.367,0.547 1.094,2.227 c 1.18,2.324 5.688,7.375 9.414,11.469 5.781,1.273 20.438,1.273 26.257,0 3.866,-4.277 8.28,-9.191 9.468,-11.512 l 1.047,-2.184 2.366,-0.547 c 9.327,-2.141 15.834,-6.598 15.834,-9.191 l 0,-55.473 -83.683,0 0,55.473 z"
         inkscape:connector-curvature="0"
         style="fill:#000000;fill-opacity:1" /><path
         style="fill:#000000;fill-opacity:1"
         d="M 380.38086 81.277344 C 382.92338 88.183681 381.51904 95.418084 379.29102 102.13867 C 368.91602 131.85667 362.02281 152.86014 358.38281 159.86914 L 352.35352 180.13672 C 352.17831 180.71417 352.0165 181.29001 351.84375 181.86719 L 445.50977 181.86719 C 448.9159 175.30851 457.47127 158.10553 467.17969 130.29688 C 471.06118 118.58875 472.28814 105.21779 451.93555 95.253906 C 436.11461 87.507539 405.39453 82.48591 380.38086 81.277344 z M 345.94531 203.28516 C 328.21628 273.63831 327.51621 337.25303 327.55859 349.19531 L 316.13867 362.25586 L 314.48242 362.25586 L 324.53516 373.70117 L 408.08398 373.70117 L 418.76953 361.48242 C 418.72555 349.0912 419.5296 277.25349 441.97266 203.28516 L 345.94531 203.28516 z "
         transform="matrix(1.06866,0,0,1.06866,-141.96444,-47.10538)"
         id="path5479" /></g></g><g
     id="g5485"
     transform="translate(2,2)"><g
       id="g5487"><path
         id="path5489"
         d="m 207.541,430.849 c 0,2.594 6.508,7.051 15.836,9.191 l 2.367,0.547 1.094,2.227 c 1.18,2.324 5.688,7.375 9.414,11.469 5.781,1.273 20.438,1.273 26.257,0 3.866,-4.277 8.28,-9.191 9.468,-11.512 l 1.047,-2.184 2.366,-0.547 c 9.327,-2.141 15.834,-6.598 15.834,-9.191 l 0,-55.473 -83.683,0 0,55.473 z"
         inkscape:connector-curvature="0" /><path
         id="path5491"
         d="M 357.291,92.138 C 361.439,79.626 362.752,65.337 341.002,54.689 321.479,45.13 280.709,39.443 252.635,39.443 l -6.282,0 c -28.117,0 -68.891,5.688 -88.414,15.246 -21.758,10.648 -20.391,24.98 -16.25,37.543 10.789,30.988 20.164,49.418 23.164,55.016 l 169.282,0 c 3.64,-7.009 12.781,-25.392 23.156,-55.11 z"
         inkscape:connector-curvature="0" /><path
         id="path5493"
         d="m 193.384,339.196 11.469,13.059 89.285,0 11.42,-13.059 c -0.047,-13.242 0.812,-90.012 24.796,-169.059 l -161.954,0 c 24.078,79.594 25.031,155.817 24.984,169.059 z"
         inkscape:connector-curvature="0" /></g></g><g
     style="fill:#000000;fill-opacity:1"
     transform="matrix(-0.93575135,0,0,0.93575135,369.11445,44.078923)"
     id="g5544"><g
       style="fill:#000000;fill-opacity:1"
       id="g5546"><path
         style="fill:#000000;fill-opacity:1"
         inkscape:connector-curvature="0"
         d="m 207.541,430.849 c 0,2.594 6.508,7.051 15.836,9.191 l 2.367,0.547 1.094,2.227 c 1.18,2.324 5.688,7.375 9.414,11.469 5.781,1.273 20.438,1.273 26.257,0 3.866,-4.277 8.28,-9.191 9.468,-11.512 l 1.047,-2.184 2.366,-0.547 c 9.327,-2.141 15.834,-6.598 15.834,-9.191 l 0,-55.473 -83.683,0 0,55.473 z"
         id="path5548" /><path
         id="path5550"
         transform="matrix(1.06866,0,0,1.06866,-141.96444,-47.10538)"
         d="m 380.38086,81.277344 c 2.54252,6.906337 1.13818,14.14074 -1.08984,20.861326 -10.375,29.718 -17.26821,50.72147 -20.90821,57.73047 l -6.02929,20.26758 c -0.17521,0.57745 -0.33702,1.15329 -0.50977,1.73047 l 93.66602,0 c 3.40613,-6.55868 11.9615,-23.76166 21.66992,-51.57031 3.88149,-11.70813 5.10845,-25.07909 -15.24414,-35.042974 C 436.11461,87.507539 405.39453,82.48591 380.38086,81.277344 Z M 345.94531,203.28516 c -17.72903,70.35315 -18.4291,133.96787 -18.38672,145.91015 l -11.41992,13.06055 -1.65625,0 10.05274,11.44531 83.54882,0 10.68555,-12.21875 c -0.044,-12.39122 0.76007,-84.22893 23.20313,-158.19726 l -96.02735,0 z"
         style="fill:#000000;fill-opacity:1"
         inkscape:connector-curvature="0" /></g></g></svg>