<?xml version="1.0" encoding="utf-8"?>
<!-- Generator: Adobe Illustrator 16.0.4, SVG Export Plug-In . SVG Version: 6.00 Build 0)  -->
<!DOCTYPE svg PUBLIC "-//W3C//DTD SVG 1.1//EN" "http://www.w3.org/Graphics/SVG/1.1/DTD/svg11.dtd">
<svg version="1.1" xmlns="http://www.w3.org/2000/svg" xmlns:xlink="http://www.w3.org/1999/xlink" x="0px" y="0px" width="500px"
	 height="500px" viewBox="0 0 500 500" enable-background="new 0 0 500 500" xml:space="preserve">
<g id="Layer_1" display="none">
	<rect display="inline" width="500" height="500"/>
</g>
<g id="Layer_2">
	<g>
		<path d="M222.871,410.738c-3.281,0-5.875,1.141-8.508,2.094c-4.602,1.684-7.969,4.098-8.328,7.418
			c-0.047,0.184-0.367,0.457-0.367,0.637v9.422c0,5.504,7.688,10.102,17.203,10.102c9.461,0,17.203-4.598,17.203-10.102v-0.273
			v-9.148c0-0.684-0.914-1.047-1.047-1.594C237.613,414.562,231.378,410.738,222.871,410.738z"/>
		<path d="M286.94,412.879c-2.68-0.957-5.367-2.141-8.734-2.141c-8.555,0-14.789,3.871-16.156,8.602
			c-0.133,0.547-1.047,0.863-1.047,1.547v9.285v0.137c0,5.504,7.734,10.102,17.203,10.102c9.461,0,17.203-4.598,17.203-10.102
			v-9.422c0-0.18-0.273-0.363-0.273-0.5C294.862,417.02,291.495,414.562,286.94,412.879z"/>
		<polyline points="234.925,393.059 250.355,393.059 250.675,393.059 266.144,393.059 		"/>
		<path d="M354.659,84.406c6.094-1.82,9.602-6.008,9.602-6.008V63.836c-35.859-10.625-110.086-10.305-113.726-10.285
			c-3.68-0.02-77.859-0.34-113.766,10.285v14.562c0,0,3.508,4.188,9.648,6.008"/>
		<path d="M157.792,223.52c10.969,34.18,15.789,35.5,24.117,43.828s17.93,17.52,17.93,35.449c0,17.977,0,73.609,0,73.609
			l20.617,17.086h2.641h57.523l20.562-17.086c0,0,0-55.633,0-73.609c0-17.93,9.648-27.121,17.977-35.449s13.156-9.648,24.078-43.828
			c10.961-34.152,11.422-117.816,11.422-117.816H146.417C146.417,105.703,146.871,189.367,157.792,223.52z"/>
	</g>
</g>
</svg>
