<?xml version="1.0" encoding="utf-8"?>
<!-- Generator: Adobe Illustrator 16.0.4, SVG Export Plug-In . SVG Version: 6.00 Build 0)  -->
<!DOCTYPE svg PUBLIC "-//W3C//DTD SVG 1.1//EN" "http://www.w3.org/Graphics/SVG/1.1/DTD/svg11.dtd">
<svg version="1.1" xmlns="http://www.w3.org/2000/svg" xmlns:xlink="http://www.w3.org/1999/xlink" x="0px" y="0px" width="500px"
	 height="500px" viewBox="0 0 500 500" enable-background="new 0 0 500 500" xml:space="preserve">
<g id="Layer_1" display="none">
	<rect display="inline" width="500" height="500"/>
</g>
<g id="Layer_2">
	<g>
		<g>
			<path d="M250.69,222.981c-103.664-0.273-187.711-21.113-187.625-46.508c0,65.984,34.039,129.019,85.508,162.511
				c29.445,19.16,64.578,30.262,102.305,30.262c103.703,0,187.805-87.871,187.805-191.589
				C438.589,202.958,354.448,223.302,250.69,222.981z"/>
		</g>
		<path d="M250.964,123.958c95.289,0.273,172.562,16.473,172.469,36.223c-0.086,19.707-77.359,35.496-172.648,35.223
			c-95.383-0.227-172.609-16.426-172.516-36.176C78.315,139.478,155.628,123.685,250.964,123.958z"/>
	</g>
</g>
</svg>
