<?xml version="1.0" encoding="utf-8"?>
<!-- Generator: Adobe Illustrator 16.0.4, SVG Export Plug-In . SVG Version: 6.00 Build 0)  -->
<!DOCTYPE svg PUBLIC "-//W3C//DTD SVG 1.1//EN" "http://www.w3.org/Graphics/SVG/1.1/DTD/svg11.dtd">
<svg version="1.1" xmlns="http://www.w3.org/2000/svg" xmlns:xlink="http://www.w3.org/1999/xlink" x="0px" y="0px" width="500px"
	 height="500px" viewBox="0 0 500 500" enable-background="new 0 0 500 500" xml:space="preserve">
<g id="Layer_1" display="none">
	<rect display="inline" width="500" height="500"/>
</g>
<g id="Layer_2">
	<g>
		<path fill="none" stroke="#000000" stroke-width="4.8" stroke-miterlimit="10" d="M114.314,82.195
			c26.32-1.031,66.891,15.984,120.938,54.375c18,12.844,85.828,65.906,132.093,124.313c36.234,44.25,72.211,104.344,53.719,129.469
			c-4.453,5.719-18.516,15.703-67.359-5.438c-48.891-21.094-105-65.766-139.148-97.641c-28.266-25.266-70.43-69.891-105.023-126.141
			C94.58,134.742,72.97,83.695,114.314,82.195z"/>
		<path fill="none" stroke="#000000" stroke-width="4.8" stroke-miterlimit="10" d="M421.063,390.352
			c-4.453,5.719-18.516,15.703-67.359-5.438c-48.891-21.094-105-65.766-139.148-97.641c-28.266-25.266-70.43-69.891-105.023-126.141
			c-11.695-20.625-27.422-56.344-14.062-71.625c-8.18,9.328-8.531,21.75-2.789,44.812c5.789,23.109,18.586,78.75,20.766,89.578
			c2.203,10.734,18.211,59.907,13.945,99.329c-3.141,22.312-0.281,35.625,9.938,44.859c10.219,9.281,13.125,12.094,57,7.734
			c21.938-2.25,29.438-2.906,91.593,7.312c53.766,9.188,94.312,16.734,106.148,16.453S413.376,399.117,421.063,390.352z"/>
		<path fill="none" stroke="#000000" stroke-width="4.8" stroke-miterlimit="10" d="M145.392,119.929
			c20.203-0.797,51.328,12.328,92.766,41.672c13.781,9.891,65.789,50.578,101.273,95.391
			c27.773,33.891,56.789,83.016,42.633,102.328c-3.422,4.312-19.031,16.734-56.484,0.516c-37.477-16.125-84.281-54-110.46-78.422
			c-21.68-19.406-54.258-53.954-80.789-97.079C122.892,164.132,113.705,121.054,145.392,119.929z"/>
		<path fill="none" stroke="#000000" stroke-width="4.8" stroke-miterlimit="10" d="M192.267,185.601
			c10.406-0.422,26.484,6.422,47.953,21.75c7.125,5.156,34.007,26.391,52.382,49.735c14.367,17.672,29.391,43.266,22.055,53.297
			c-1.781,2.25-9.844,8.719-29.203,0.328c-19.383-8.438-43.593-28.219-57.14-40.969c-11.203-10.125-28.055-28.079-41.789-50.579
			C180.595,208.617,175.861,186.164,192.267,185.601z"/>
		<path fill="none" stroke="#000000" stroke-width="4.8" stroke-miterlimit="10" d="M114.08,226.57
			c10.477,21.047,24,50.344,68.906,92.344c44.906,42.047,81.609,57.703,99.07,63.562"/>
	</g>
</g>
</svg>
