<?xml version="1.0" encoding="utf-8"?>
<!-- Generator: Adobe Illustrator 16.0.4, SVG Export Plug-In . SVG Version: 6.00 Build 0)  -->
<!DOCTYPE svg PUBLIC "-//W3C//DTD SVG 1.1//EN" "http://www.w3.org/Graphics/SVG/1.1/DTD/svg11.dtd">
<svg version="1.1" xmlns="http://www.w3.org/2000/svg" xmlns:xlink="http://www.w3.org/1999/xlink" x="0px" y="0px" width="500px"
	 height="500px" viewBox="0 0 500 500" enable-background="new 0 0 500 500" xml:space="preserve">
<g id="Layer_1" display="none">
	<rect display="inline" width="500" height="500"/>
</g>
<g id="Layer_2">
	<g>
		<path fill="none" stroke="#000000" stroke-width="4.8" stroke-miterlimit="10" d="M441.079,276.902
			c-11.391,22.406-65.766,30-182.438-56.388c-59.576-46.547-97.919-101.297-98.904-133.031c0.047-5.812,0.188-14.156,7.5-20.156
			c-26.297,23.531-115.406,123-103.828,222.56c11.625,99.656,102.234,142.125,144.281,147.234
			c26.625,3.188,57.326,0.047,86.294-11.625C355.438,400.793,414.267,339.105,441.079,276.902z"/>
		<path fill="none" stroke="#000000" stroke-width="4.8" stroke-miterlimit="10" d="M365.61,232.936
			c-5.672,11.203-32.859,13.875-91.219-29.297c-29.857-23.344-46.873-45.281-47.435-63.328c0.047-4.969-1.828-17.578,15.938-17.812
			c18.513,0.234,49.357,13.125,82.732,42.047C342.735,177.999,375.501,211.092,365.61,232.936z"/>
		<path fill="none" stroke="#000000" stroke-width="4.8" stroke-miterlimit="10" d="M195.597,59.827
			c36.984,0.562,98.763,26.25,165.513,84.234c56.953,48.562,92.344,105.937,79.969,132.935
			c-11.391,22.406-65.766,30.047-182.484-56.388c-59.576-46.594-97.966-101.344-98.951-133.125
			C159.738,77.639,160.113,60.342,195.597,59.827z"/>
		<path fill="none" stroke="#000000" stroke-width="4.8" stroke-miterlimit="10" d="M136.535,348.434
			c-2.766-0.094-5.344,0.516-7.734,2.062c-4.969,3.422-9.094,17.203,6.469,29.812c15.609,12.562,32.672,18.938,41.859,11.578
			c3.656-2.953,3.516-7.172,1.219-11.812 M172.16,267.434c-7.406,24.047-14.766,62.625-40.594,85.875
			c-1.359,6.375,0,16.969,11.203,24.75c11.203,7.828,19.594,11.625,30.75,8.812c3.422-6.609,40.406-51.891,76.64-60.234
			 M102.785,147.483c1.031,15.703,9.094,77.812,106.5,151.169c96.091,72.422,154.169,71.203,178.732,58.641"/>
	</g>
</g>
</svg>
