<?xml version="1.0" encoding="utf-8"?>
<!-- Generator: Adobe Illustrator 16.0.4, SVG Export Plug-In . SVG Version: 6.00 Build 0)  -->
<!DOCTYPE svg PUBLIC "-//W3C//DTD SVG 1.1//EN" "http://www.w3.org/Graphics/SVG/1.1/DTD/svg11.dtd">
<svg version="1.1" xmlns="http://www.w3.org/2000/svg" xmlns:xlink="http://www.w3.org/1999/xlink" x="0px" y="0px" width="500px"
	 height="500px" viewBox="0 0 500 500" enable-background="new 0 0 500 500" xml:space="preserve">
<g id="Layer_1" display="none">
	<rect display="inline" width="500" height="500"/>
</g>
<g id="Layer_2">
	<g>
		<path fill="none" stroke="#000000" stroke-width="6.9898" stroke-miterlimit="10" d="M404.109,402.393v-64.711H186.448
			c0,0-92.288,2.23-92.288-61.205c0,57.201,0,59.703,0,59.703s-2.002,66.213,95.292,66.213
			C266.178,402.393,404.109,402.393,404.109,402.393z"/>
		
			<rect x="127.516" y="116.977" fill="none" stroke="#000000" stroke-width="6.9898" stroke-miterlimit="10" width="15.563" height="15.518"/>
		
			<rect x="187.722" y="116.977" fill="none" stroke="#000000" stroke-width="6.9898" stroke-miterlimit="10" width="15.563" height="15.518"/>
		
			<rect x="247.926" y="116.977" fill="none" stroke="#000000" stroke-width="6.9898" stroke-miterlimit="10" width="15.499" height="15.518"/>
		
			<rect x="308.09" y="116.977" fill="none" stroke="#000000" stroke-width="6.9898" stroke-miterlimit="10" width="15.541" height="15.518"/>
		<polygon fill="none" stroke="#000000" stroke-width="6.9898" stroke-miterlimit="10" points="380.354,149.172 366.339,142.506 
			366.111,126.192 380.127,132.836 		"/>
		
			<rect x="361.311" y="365.078" fill="none" stroke="#000000" stroke-width="6.9898" stroke-miterlimit="10" width="15.54" height="15.562"/>
		
			<rect x="301.104" y="365.078" fill="none" stroke="#000000" stroke-width="6.9898" stroke-miterlimit="10" width="15.54" height="15.562"/>
		
			<rect x="240.919" y="365.078" fill="none" stroke="#000000" stroke-width="6.9898" stroke-miterlimit="10" width="15.566" height="15.562"/>
		
			<rect x="180.737" y="365.078" fill="none" stroke="#000000" stroke-width="6.9898" stroke-miterlimit="10" width="15.563" height="15.562"/>
		<polygon fill="none" stroke="#000000" stroke-width="6.9898" stroke-miterlimit="10" points="130.884,350.697 144.945,357.342 
			144.809,373.678 130.748,367.035 		"/>
		<path fill="none" stroke="#000000" stroke-width="6.9898" stroke-miterlimit="10" d="M94.114,91.924v64.666h217.707
			c0,0,83.278-5.506,92.288,61.207c0-57.18,0-59.705,0-59.705s2.002-66.168-95.291-66.168
			C232.045,91.924,94.114,91.924,94.114,91.924z"/>
		<path fill="none" stroke="#000000" stroke-width="6.9898" stroke-miterlimit="10" d="M129.382,326.67
			c0.819-11.195,7.281-26.826,34.494-35.654c20.068-6.508,139.185-13.289,139.185-13.289s97.498-1.25,100.911-60.75
			c-3.709-25.414-18.293-40.182-34.812-48.76c-0.5,11.832-6.735,28.146-34.768,35.041c-38.612,9.51-139.208,13.287-139.208,13.287
			s-98.659-1.684-100.957,61.728C94.934,303.779,110.906,318.342,129.382,326.67z"/>
		<path fill="none" stroke="#000000" stroke-width="6.9898" stroke-miterlimit="10" d="M94.16,279.957
			c0,0.182-0.045,0.342-0.045,0.547c0,0.158,0.045,0.295,0.045,0.477C94.16,280.617,94.16,280.299,94.16,279.957z"/>
	</g>
</g>
</svg>
