<?xml version="1.0" encoding="utf-8"?>
<!-- Generator: Adobe Illustrator 16.0.4, SVG Export Plug-In . SVG Version: 6.00 Build 0)  -->
<!DOCTYPE svg PUBLIC "-//W3C//DTD SVG 1.1//EN" "http://www.w3.org/Graphics/SVG/1.1/DTD/svg11.dtd">
<svg version="1.1" xmlns="http://www.w3.org/2000/svg" xmlns:xlink="http://www.w3.org/1999/xlink" x="0px" y="0px" width="500px"
	 height="500px" viewBox="0 0 500 500" enable-background="new 0 0 500 500" xml:space="preserve">
<g id="Layer_1" display="none">
	<rect display="inline" width="500" height="500"/>
</g>
<g id="Layer_2">
	<g>
		<g>
			<path d="M367.656,277.897c0,52.379-52.219,94.84-116.656,94.84s-116.656-42.461-116.656-94.84
				c0-52.419,52.219-94.876,116.656-94.876S367.656,225.478,367.656,277.897z"/>
		</g>
		<g>
			<path d="M250.773,415.968c-97.133,0-176.156-65.621-176.156-146.213c0-80.636,79.023-146.21,176.156-146.21
				s176.156,65.574,176.156,146.21C426.93,350.347,347.906,415.968,250.773,415.968z M250.773,141.017
				c-87.492,0-158.688,57.75-158.688,128.738c0,70.99,71.195,128.736,158.688,128.736c87.484,0,158.68-57.746,158.68-128.736
				C409.453,198.767,338.258,141.017,250.773,141.017z"/>
		</g>
		<g>
			<path d="M250.773,112.486c36.539,0,70.578,8.555,99.656,23.117c-20.336-32.902-57.203-55.156-99.703-55.156
				c-42.594,0-79.547,22.254-99.844,55.293C180.008,121.083,214.117,112.486,250.773,112.486z"/>
		</g>
	</g>
</g>
</svg>
