<?xml version="1.0" encoding="utf-8"?>
<!-- Generator: Adobe Illustrator 16.0.4, SVG Export Plug-In . SVG Version: 6.00 Build 0)  -->
<!DOCTYPE svg PUBLIC "-//W3C//DTD SVG 1.1//EN" "http://www.w3.org/Graphics/SVG/1.1/DTD/svg11.dtd">
<svg version="1.1" xmlns="http://www.w3.org/2000/svg" xmlns:xlink="http://www.w3.org/1999/xlink" x="0px" y="0px" width="500px"
	 height="500px" viewBox="0 0 500 500" enable-background="new 0 0 500 500" xml:space="preserve">
<g id="Layer_1" display="none">
	<rect display="inline" width="500" height="500"/>
</g>
<g id="Layer_2">
	<g>
		<path fill="none" stroke="#000000" stroke-width="4.8" stroke-linecap="round" stroke-miterlimit="10" d="M480.748,257.939H20.53
			c0,0-5.484-3.845-6.469-4.596c-4.945-3.425-13.172-8.722,6.469-16.691c0.914-0.234,3.422,0.281,4.688,0l0,0h450.843h0.023
			c1.242,0.281,3.727-0.234,4.664,0c18.375,8.344,11.414,13.266,6.469,16.691C486.232,254.095,483.982,255.689,480.748,257.939z"/>
		<path fill="none" stroke="#000000" stroke-width="4.8" stroke-linecap="round" stroke-miterlimit="10" d="M480.748,236.653
			c-28.734-19.359-138.609-85.734-230.109-85.734c-91.523,0-201.422,66.375-230.109,85.734H480.748L480.748,236.653z"/>
		<path fill="none" stroke="#000000" stroke-width="4.8" stroke-linecap="round" stroke-miterlimit="10" d="M20.53,257.939
			c28.758,19.312,138.633,85.641,230.109,85.641c91.523,0,201.445-66.328,230.109-85.641H20.53L20.53,257.939z"/>
	</g>
</g>
</svg>
