<?xml version="1.0" encoding="utf-8"?>
<!-- Generator: Adobe Illustrator 16.0.4, SVG Export Plug-In . SVG Version: 6.00 Build 0)  -->
<!DOCTYPE svg PUBLIC "-//W3C//DTD SVG 1.1//EN" "http://www.w3.org/Graphics/SVG/1.1/DTD/svg11.dtd">
<svg version="1.1" xmlns="http://www.w3.org/2000/svg" xmlns:xlink="http://www.w3.org/1999/xlink" x="0px" y="0px" width="500px"
	 height="500px" viewBox="0 0 500 500" enable-background="new 0 0 500 500" xml:space="preserve">
<g id="Layer_1" display="none">
	<rect display="inline" width="500" height="500"/>
</g>
<g id="Layer_2">
	<g>
		<path fill="none" stroke="#000000" stroke-width="4.8" stroke-miterlimit="10" d="M249.167,347.182
			c46.219,49.922,139.031,114.234,209.227,74.719c49.617-28.172,21.727-114.234-6.75-152.016
			c-38.648-52.129-67.758-73.879-84.258-84.004c-2.602-2.016-7.875-5.203-1.852-5.203c6,0,35.156,3.188,34.969-29.672
			c-0.211-32.906-39.305-77.25-78.961-95.906c-39.68-18.609-72.375-6.562-66.188,25.359c6.188,32.016,34.219,59.438,46.828,69.797
			c2.625,2.438,5.812,6-1.312,3.938c-7.172-2.062-41.766-9.984-65.812-2.25c-24.094,7.688-32.156,21.234-35.156,25.172
			c-0.188,1.547-2.836,4.5-5.086-1.5s-16.359-48.094-68.062-78.188C96.026,79.521,50.229,66.208,23.534,91.943
			s9.398,84.234,32.344,102.281s76.898,57.895,124.828,32.907c2.836-1.312,8.086-6.563,9.023,2.813
			C190.667,239.367,196.128,288.588,249.167,347.182z"/>
		<path fill="none" stroke="#000000" stroke-width="4.8" stroke-miterlimit="10" d="M176.792,229.006
			c-1.734,22.175-12.984,95.16,64.828,169.597c77.859,74.438,188.531,62.203,227.016,15.656"/>
		<path fill="none" stroke="#000000" stroke-width="4.8" stroke-miterlimit="10" d="M210.917,363.447
			c-8.859,7.969-31.406,30.562-33.703,32.766c-2.25,2.297-15.469,11.859-3.656,19.172c11.859,7.359,30.984,15.75,70.805,14.953
			c8.461,0,24.375-1.734,33.633-4.219"/>
		<path fill="none" stroke="#000000" stroke-width="4.8" stroke-miterlimit="10" d="M176.464,396.916
			c5.859,6.656,19.172,24.188,85.734,18.891"/>
		<path fill="none" stroke="#000000" stroke-width="4.8" stroke-miterlimit="10" d="M235.62,161.927
			c-27.094,9.562-83.109,78.284,40.594,201.52c36.867,32.156,126.727,88.922,180.891,44.578
			c54.117-44.391-14.297-139.172-25.594-153.047c-5.766-7.125-31.781-40.551-71.438-66.192
			C322.245,164.318,269.37,148.896,235.62,161.927z"/>
		<path fill="none" stroke="#000000" stroke-width="4.8" stroke-miterlimit="10" d="M251.183,193.99
			c-21.797,7.734-66.891,63.051,32.672,162.239c29.672,25.828,101.977,71.484,145.547,35.812
			c43.594-35.719-11.484-111.984-20.578-123.188c-4.641-5.719-25.547-32.627-57.492-53.254
			C320.909,195.912,278.37,183.49,251.183,193.99z"/>
		<path fill="none" stroke="#000000" stroke-width="4.8" stroke-miterlimit="10" d="M52.011,92.13
			c-17.812,5.391-49.875,36.516,20.953,100.5c20.016,15.984,68.977,44.393,98.414,22.219c29.461-22.172-4.734-69.188-10.898-76.172
			c-3.117-3.562-20.297-20.578-41.883-33.375C97.995,93.115,70.386,85.662,52.011,92.13z"/>
		<path fill="none" stroke="#000000" stroke-width="4.8" stroke-miterlimit="10" d="M282.894,58.943
			c-16.57,4.172-30.914,30.516,20.508,80.297c14.531,12.516,55.969,40.5,77.344,23.25c21.375-17.297-8.062-55.969-12.867-61.078
			c-4.055-4.312-17.039-18.562-32.695-28.547C320.229,63.349,296.229,53.88,282.894,58.943z"/>
	</g>
</g>
</svg>
