<?xml version="1.0" encoding="utf-8"?>
<!-- Generator: Adobe Illustrator 16.0.4, SVG Export Plug-In . SVG Version: 6.00 Build 0)  -->
<!DOCTYPE svg PUBLIC "-//W3C//DTD SVG 1.1//EN" "http://www.w3.org/Graphics/SVG/1.1/DTD/svg11.dtd">
<svg version="1.1" xmlns="http://www.w3.org/2000/svg" xmlns:xlink="http://www.w3.org/1999/xlink" x="0px" y="0px" width="500px"
	 height="500px" viewBox="0 0 500 500" enable-background="new 0 0 500 500" xml:space="preserve">
<g id="Layer_1" display="none">
	<rect display="inline" width="500" height="500"/>
</g>
<g id="Layer_2">
	<g>
		<path d="M190.482,383.941c-10.188,9.648-27.938,27.352-28.852,28.215l-1.312,1.23c-3.781,3.367-5.648,5.777-5.508,7.188
			c0.047,0.594,0.953,1.504,2.32,2.324c10.508,6.551,26.938,13.922,61.25,13.922c1.727,0,3.461-0.043,5.234-0.043
			c5.047,0,12.469-0.82,19.656-1.82c-9.055-6.098-17.789-12.742-25.797-20.387C206.732,404.285,198.084,394.09,190.482,383.941z"/>
		<path d="M235.678,352.906c-45.469-50.191-56.344-94.336-59.023-113.991l-2.961-1.915c-0.047,0.047-0.133,0.047-0.227,0.094
			l-0.047,1.047c-2.227,24.799-8.102,90.647,62.211,157.905c36.358,34.812,84.866,52.742,133.241,50.332
			c14.148-0.867,27.258-3.914,39.32-8.055c-3.734,0.363-7.328,1.363-11.242,1.363C337.153,439.688,272.716,392.906,235.678,352.906z
			"/>
		<path d="M444.458,266.582c-27.984-37.863-55.242-65.031-81-80.957l-1.32-0.957c-2.867-2.047-6.828-4.867-5.375-9.281
			c0.914-2.867,3.461-4.277,7.555-4.277l4.414,0.043c8.695,0,14.883-1.957,18.891-6.008c3.867-3.867,5.781-9.965,5.734-17.973
			c-0.141-28.535-35.547-70.992-74.266-89.148c-22.805-10.695-45.328-10.512-54.023,0c-3.82,4.688-5.047,11.285-3.5,19.156
			c6.414,33.039,37.773,60.16,44.008,65.258c2.273,2.094,6.141,5.598,4.453,9.875l-1.273,3.23L304.208,156
			c-1.234,0-2.688-0.32-4.641-0.867c-0.688-0.18-18.977-5.188-38.82-5.188c-8.781,0-16.335,1.004-22.476,2.961
			c-19.938,6.414-27.672,17.062-30.992,21.613l-0.367,0.547c-1,2.504-3.461,4.824-6.641,4.824c-2.367,0-5.648-1.23-7.781-6.781
			c-11.016-30.172-33.812-56.156-64.352-73.992c-20.43-11.832-42.367-18.66-60.203-18.66c-14.289,0-25.938,4.277-34.633,12.652
			c-5.547,5.324-8.102,12.879-7.594,22.391c1.273,25.438,23.477,57.883,38.812,69.898c21.297,16.699,53.43,38.953,86.555,38.953
			c10.742,0,20.844-2.457,30.031-7.281l1.281-0.684c1.68-1.047,4-2.457,6.734-2.457c2.227,0,7.367,0.957,8.281,10.012
			c0.32,3.047,1.047,7.234,2,12.059l0.18,0.137c4.602,21.386,17.523,57.655,54.655,98.702c35.586,38.5,97.297,83.461,153.766,83.461
			c16.25,0,31.266-3.824,44.648-11.332c2.633-1.547,4.453-3.957,6.641-6.051l0.453,0.316c7.375-6.598,13.062-14.879,15.383-26.074
			C482.005,341.758,464.935,293.75,444.458,266.582z"/>
	</g>
</g>
</svg>
