<?xml version="1.0" encoding="UTF-8" standalone="no"?>
<!-- Generator: Adobe Illustrator 16.0.4, SVG Export Plug-In . SVG Version: 6.00 Build 0)  -->

<svg
   xmlns:dc="http://purl.org/dc/elements/1.1/"
   xmlns:cc="http://creativecommons.org/ns#"
   xmlns:rdf="http://www.w3.org/1999/02/22-rdf-syntax-ns#"
   xmlns:svg="http://www.w3.org/2000/svg"
   xmlns="http://www.w3.org/2000/svg"
   xmlns:sodipodi="http://sodipodi.sourceforge.net/DTD/sodipodi-0.dtd"
   xmlns:inkscape="http://www.inkscape.org/namespaces/inkscape"
   version="1.1"
   x="0px"
   y="0px"
   width="500px"
   height="500px"
   viewBox="0 0 500 500"
   enable-background="new 0 0 500 500"
   xml:space="preserve"
   id="svg4674"
   inkscape:version="0.91 r13725"
   sodipodi:docname="tap_outline_34.svg"><metadata
     id="metadata4746"><rdf:RDF><cc:Work
         rdf:about=""><dc:format>image/svg+xml</dc:format><dc:type
           rdf:resource="http://purl.org/dc/dcmitype/StillImage" /><dc:title></dc:title></cc:Work></rdf:RDF></metadata><defs
     id="defs4744" /><sodipodi:namedview
     pagecolor="#ffffff"
     bordercolor="#666666"
     borderopacity="1"
     objecttolerance="10"
     gridtolerance="10"
     guidetolerance="10"
     inkscape:pageopacity="0"
     inkscape:pageshadow="2"
     inkscape:window-width="2880"
     inkscape:window-height="1752"
     id="namedview4742"
     showgrid="false"
     inkscape:zoom="2.6700352"
     inkscape:cx="155.61164"
     inkscape:cy="277.10103"
     inkscape:window-x="0"
     inkscape:window-y="48"
     inkscape:window-maximized="1"
     inkscape:current-layer="svg4674" /><g
     id="Layer_1"
     display="none"><rect
       display="inline"
       width="500"
       height="500"
       id="rect4677" /></g><g
     id="g6112"
     transform="matrix(1.3257777,0,0,1.3257777,-82.752294,-78.70602)"><g
       id="g4682"><path
         inkscape:connector-curvature="0"
         id="path4684"
         d="m 250.973,424.979 c -97.594,0 -177.047,-79.453 -177.047,-177.042 0,-97.641 79.453,-177.047 177.047,-177.047 97.645,0 177.074,79.406 177.074,177.047 0,97.589 -79.43,177.042 -177.074,177.042 z m 0,-349.308 c -94.969,0 -172.219,77.25 -172.219,172.266 0,94.964 77.25,172.214 172.219,172.214 94.973,0 172.246,-77.25 172.246,-172.214 0,-95.016 -77.274,-172.266 -172.246,-172.266 z" /></g><path
       d="m 250.973,411.479 c -90.141,0 -163.547,-73.359 -163.547,-163.542 0,-90.234 73.406,-163.547 163.547,-163.547 90.191,0 163.551,73.312 163.551,163.547 -10e-4,90.183 -73.36,163.542 -163.551,163.542 z m 0,-324.229 c -88.594,0 -160.641,72.094 -160.641,160.688 0,88.542 72.047,160.636 160.641,160.636 88.598,0 160.645,-72.094 160.645,-160.636 C 411.617,159.343 339.57,87.25 250.973,87.25 Z"
       id="path4688"
       inkscape:connector-curvature="0" /><g
       style="fill:#000000;fill-opacity:1"
       id="g4690"><path
         style="fill:#000000;fill-opacity:1"
         inkscape:connector-curvature="0"
         id="path4692"
         d="m 163.176,294.245 c -25.547,0 -46.266,-20.81 -46.266,-46.308 0,-25.594 20.719,-46.312 46.266,-46.312 25.547,0 46.312,20.719 46.312,46.312 0,25.499 -20.765,46.308 -46.312,46.308 z m 0,-90.745 c -24.469,0 -44.391,19.922 -44.391,44.438 0,24.467 19.922,44.339 44.391,44.339 24.469,0 44.391,-19.872 44.391,-44.339 C 207.566,223.421 187.645,203.5 163.176,203.5 Z" /></g><g
       id="g4694"><path
         inkscape:connector-curvature="0"
         id="path4696"
         d="m 342.664,294.245 c -25.547,0 -46.312,-20.81 -46.312,-46.308 0,-25.594 20.766,-46.312 46.312,-46.312 25.523,0 46.312,20.719 46.312,46.312 10e-4,25.499 -20.788,46.308 -46.312,46.308 z m 0,-90.745 c -24.492,0 -44.391,19.922 -44.391,44.438 0,24.467 19.898,44.339 44.391,44.339 24.422,0 44.344,-19.872 44.344,-44.339 0,-24.517 -19.922,-44.438 -44.344,-44.438 z" /></g><g
       id="g4698"><path
         inkscape:connector-curvature="0"
         id="path4700"
         d="m 253.883,382.979 c -25.551,0 -46.316,-20.766 -46.316,-46.312 0,-25.5 20.766,-46.312 46.316,-46.312 25.547,0 46.312,20.812 46.312,46.312 0,25.547 -20.765,46.312 -46.312,46.312 z m 0,-90.703 c -24.473,0 -44.395,19.969 -44.395,44.391 0,24.469 19.922,44.391 44.395,44.391 24.469,0 44.391,-19.922 44.391,-44.391 -10e-4,-24.422 -19.922,-44.391 -44.391,-44.391 z" /></g><g
       id="g4702"><path
         inkscape:connector-curvature="0"
         id="path4704"
         d="m 255.055,178.421 c 0,1.219 -0.938,2.203 -2.157,2.203 -1.174,0 -2.159,-0.984 -2.159,-2.203 0,-1.172 0.985,-2.156 2.159,-2.156 1.219,0 2.157,0.985 2.157,2.156 z" /></g><g
       id="g4706"><path
         inkscape:connector-curvature="0"
         id="path4708"
         d="m 165.355,243.062 c 0,1.219 -0.961,2.203 -2.18,2.203 -1.172,0 -2.18,-0.984 -2.18,-2.203 0,-1.172 1.008,-2.156 2.18,-2.156 1.22,0 2.18,0.984 2.18,2.156 z" /></g><g
       id="g4710"><path
         inkscape:connector-curvature="0"
         id="path4712"
         d="m 165.355,253.704 c 0,1.219 -0.961,2.155 -2.18,2.155 -1.172,0 -2.18,-0.937 -2.18,-2.155 0,-1.218 1.008,-2.157 2.18,-2.157 1.22,0 2.18,0.938 2.18,2.157 z" /></g><g
       id="g4714"><path
         inkscape:connector-curvature="0"
         id="path4716"
         d="m 339.031,253.704 c 0,1.219 -0.961,2.155 -2.18,2.155 -1.219,0 -2.156,-0.937 -2.156,-2.155 0,-1.218 0.938,-2.157 2.156,-2.157 1.218,0 2.18,0.938 2.18,2.157 z" /></g><g
       id="g4718"><path
         inkscape:connector-curvature="0"
         id="path4720"
         d="m 252.193,331.089 c 0,1.266 -0.963,2.203 -2.182,2.203 -1.195,0 -2.18,-0.938 -2.18,-2.203 0,-1.172 0.984,-2.156 2.18,-2.156 1.219,0 2.182,0.984 2.182,2.156 z" /></g><g
       id="g4722"><path
         inkscape:connector-curvature="0"
         id="path4724"
         d="m 252.193,341.776 c 0,1.172 -0.963,2.156 -2.182,2.156 -1.195,0 -2.18,-0.984 -2.18,-2.156 0,-1.266 0.984,-2.203 2.18,-2.203 1.219,0 2.182,0.938 2.182,2.203 z" /></g><g
       id="g4726"><path
         inkscape:connector-curvature="0"
         id="path4728"
         d="m 259.93,336.386 c 0,1.172 -0.984,2.109 -2.18,2.109 -1.219,0 -2.203,-0.938 -2.203,-2.109 0,-1.266 0.984,-2.203 2.203,-2.203 1.195,0 2.18,0.937 2.18,2.203 z" /></g><g
       id="g4730"><path
         inkscape:connector-curvature="0"
         id="path4732"
         d="m 339.031,243.062 c 0,1.219 -0.961,2.203 -2.18,2.203 -1.219,0 -2.156,-0.984 -2.156,-2.203 0,-1.172 0.938,-2.156 2.156,-2.156 1.218,0 2.18,0.984 2.18,2.156 z" /></g><g
       id="g4734"><path
         inkscape:connector-curvature="0"
         id="path4736"
         d="m 349.648,243.062 c 0,1.219 -0.984,2.203 -2.18,2.203 -1.196,0 -2.156,-0.984 -2.156,-2.203 0,-1.172 0.961,-2.156 2.156,-2.156 1.195,0 2.18,0.984 2.18,2.156 z" /></g><g
       id="g4738"><path
         inkscape:connector-curvature="0"
         id="path4740"
         d="m 349.648,253.704 c 0,1.219 -0.984,2.155 -2.18,2.155 -1.196,0 -2.156,-0.937 -2.156,-2.155 0,-1.218 0.961,-2.157 2.156,-2.157 1.195,0 2.18,0.938 2.18,2.157 z" /></g></g><path
     style="opacity:1;fill:#ff0000;fill-opacity:1;stroke:none;stroke-width:2;stroke-miterlimit:4;stroke-dasharray:none;stroke-opacity:1"
     d="M 241.64046,462.54544 C 203.56328,461.26542 165.84738,449.19943 133.58945,427.97799 85.928225,396.62323 52.865165,348.0039 41.500545,292.56097 38.731637,279.0527 37.700999,269.23566 37.443976,253.92132 c -0.216017,-12.87111 0.0994,-19.65641 1.407248,-30.2733 C 47.52729,153.21743 91.719119,90.99945 155.49928,59.418426 c 9.25315,-4.581738 13.58044,-6.442319 22.59355,-9.71443 35.86845,-13.021647 76.03111,-15.988416 113.73424,-8.401418 17.29813,3.480902 35.55063,9.662392 51.2554,17.358435 63.23625,30.988598 107.42011,91.367387 117.44496,160.492687 1.62279,11.18988 2.05274,17.67725 2.04784,30.89847 -0.005,13.74081 -0.47872,20.47956 -2.25061,32.02205 -6.92107,45.08637 -27.81649,86.18717 -60.26585,118.54176 -28.45746,28.37432 -64.59239,48.30739 -103.20426,56.9305 -18.48963,4.12923 -35.43853,5.66374 -55.21409,4.99896 z m 18.16456,-33.66379 c 17.73623,-1.83773 33.20715,-10.69765 43.80466,-25.08619 4.89003,-6.63932 8.61375,-15.02906 10.57318,-23.82195 0.71832,-3.2235 0.82677,-4.82684 0.83326,-12.31989 0.007,-7.52553 -0.0966,-9.07861 -0.81567,-12.28961 -2.0257,-9.04529 -5.76314,-17.35264 -10.90322,-24.23502 -16.22016,-21.71823 -43.70303,-30.32166 -69.37982,-21.71915 -8.68662,2.91029 -16.27102,7.70573 -23.39504,14.79216 -9.04741,8.99966 -14.31305,18.67681 -17.08855,31.4052 -0.7166,3.28633 -0.8301,4.9334 -0.8301,12.04642 0,9.02602 0.44643,12.13894 2.75317,19.19786 8.85219,27.08872 36.24412,44.95253 64.44813,42.03017 z M 139.26131,311.26748 c 5.31413,-0.54034 8.73386,-1.27419 13.84896,-2.97191 22.00448,-7.30334 37.98152,-26.44627 41.3764,-49.57521 0.92766,-6.3201 0.59358,-15.83037 -0.76394,-21.74718 -1.28789,-5.61329 -2.79483,-9.89921 -5.08578,-14.46454 -11.78141,-23.47758 -37.071,-36.9308 -62.98701,-33.50696 -24.95845,3.29732 -45.320799,21.28718 -51.576525,45.56716 -1.550137,6.01646 -2.048403,11.01621 -1.785462,17.91587 0.352426,9.24776 2.33656,17.01519 6.458213,25.28245 6.866273,13.77246 19.879805,25.18833 34.524224,30.28571 8.64149,3.00791 17.38643,4.0895 25.99092,3.21461 z m 237.82458,0.001 c 8.1691,-0.82758 14.83016,-2.7251 21.81456,-6.21425 30.96274,-15.46783 43.14999,-53.14835 27.08215,-83.73259 -14.00285,-26.65362 -45.30446,-39.19588 -74.01807,-29.65834 -5.1429,1.70827 -11.35188,4.83424 -15.75602,7.93252 -3.99736,2.81211 -11.68725,10.29312 -14.23669,13.84998 -5.74678,8.01764 -9.27826,16.29035 -11.11214,26.03088 -1.00879,5.35813 -0.91442,16.37859 0.1876,21.90652 4.43477,22.24559 20.16202,40.17498 41.26588,47.04395 8.57321,2.79044 16.40652,3.6889 24.77273,2.84133 z M 254.8014,159.92044 c 1.04026,-1.14946 0.859,-3.23786 -0.373,-4.29758 -1.27085,-1.09314 -2.45606,-1.1284 -3.74878,-0.11155 -0.71477,0.56224 -0.98683,1.12169 -0.98683,2.02927 0,1.81119 0.34595,2.46201 1.58579,2.98333 1.36238,0.57283 2.65935,0.35066 3.52282,-0.60347 z"
     id="path6143"
     inkscape:connector-curvature="0" /></svg>