<?xml version="1.0" encoding="UTF-8" standalone="no"?>
<!-- Generator: Adobe Illustrator 16.0.4, SVG Export Plug-In . SVG Version: 6.00 Build 0)  -->

<svg
   xmlns:dc="http://purl.org/dc/elements/1.1/"
   xmlns:cc="http://creativecommons.org/ns#"
   xmlns:rdf="http://www.w3.org/1999/02/22-rdf-syntax-ns#"
   xmlns:svg="http://www.w3.org/2000/svg"
   xmlns="http://www.w3.org/2000/svg"
   xmlns:sodipodi="http://sodipodi.sourceforge.net/DTD/sodipodi-0.dtd"
   xmlns:inkscape="http://www.inkscape.org/namespaces/inkscape"
   version="1.1"
   x="0px"
   y="0px"
   width="500px"
   height="500px"
   viewBox="0 0 500 500"
   enable-background="new 0 0 500 500"
   xml:space="preserve"
   id="svg4674"
   inkscape:version="0.91 r13725"
   sodipodi:docname="tap_outline_17.svg"><metadata
     id="metadata4746"><rdf:RDF><cc:Work
         rdf:about=""><dc:format>image/svg+xml</dc:format><dc:type
           rdf:resource="http://purl.org/dc/dcmitype/StillImage" /><dc:title></dc:title></cc:Work></rdf:RDF></metadata><defs
     id="defs4744" /><sodipodi:namedview
     pagecolor="#ffffff"
     bordercolor="#666666"
     borderopacity="1"
     objecttolerance="10"
     gridtolerance="10"
     guidetolerance="10"
     inkscape:pageopacity="0"
     inkscape:pageshadow="2"
     inkscape:window-width="2880"
     inkscape:window-height="1752"
     id="namedview4742"
     showgrid="false"
     inkscape:zoom="2.6700352"
     inkscape:cx="155.61164"
     inkscape:cy="277.10103"
     inkscape:window-x="0"
     inkscape:window-y="48"
     inkscape:window-maximized="1"
     inkscape:current-layer="svg4674" /><g
     id="Layer_1"
     display="none"><rect
       display="inline"
       width="500"
       height="500"
       id="rect4677" /></g><g
     id="g6112"
     transform="matrix(1.3257777,0,0,1.3257777,-82.752294,-78.70602)"><g
       id="g4682"><path
         inkscape:connector-curvature="0"
         id="path4684"
         d="m 250.973,424.979 c -97.594,0 -177.047,-79.453 -177.047,-177.042 0,-97.641 79.453,-177.047 177.047,-177.047 97.645,0 177.074,79.406 177.074,177.047 0,97.589 -79.43,177.042 -177.074,177.042 z m 0,-349.308 c -94.969,0 -172.219,77.25 -172.219,172.266 0,94.964 77.25,172.214 172.219,172.214 94.973,0 172.246,-77.25 172.246,-172.214 0,-95.016 -77.274,-172.266 -172.246,-172.266 z" /></g><path
       d="m 250.973,411.479 c -90.141,0 -163.547,-73.359 -163.547,-163.542 0,-90.234 73.406,-163.547 163.547,-163.547 90.191,0 163.551,73.312 163.551,163.547 -10e-4,90.183 -73.36,163.542 -163.551,163.542 z m 0,-324.229 c -88.594,0 -160.641,72.094 -160.641,160.688 0,88.542 72.047,160.636 160.641,160.636 88.598,0 160.645,-72.094 160.645,-160.636 C 411.617,159.343 339.57,87.25 250.973,87.25 Z"
       id="path4688"
       inkscape:connector-curvature="0" /><g
       style="fill:#000000;fill-opacity:1"
       id="g4690"><path
         style="fill:#000000;fill-opacity:1"
         inkscape:connector-curvature="0"
         id="path4692"
         d="m 163.176,294.245 c -25.547,0 -46.266,-20.81 -46.266,-46.308 0,-25.594 20.719,-46.312 46.266,-46.312 25.547,0 46.312,20.719 46.312,46.312 0,25.499 -20.765,46.308 -46.312,46.308 z m 0,-90.745 c -24.469,0 -44.391,19.922 -44.391,44.438 0,24.467 19.922,44.339 44.391,44.339 24.469,0 44.391,-19.872 44.391,-44.339 C 207.566,223.421 187.645,203.5 163.176,203.5 Z" /></g><g
       id="g4694"><path
         inkscape:connector-curvature="0"
         id="path4696"
         d="m 342.664,294.245 c -25.547,0 -46.312,-20.81 -46.312,-46.308 0,-25.594 20.766,-46.312 46.312,-46.312 25.523,0 46.312,20.719 46.312,46.312 10e-4,25.499 -20.788,46.308 -46.312,46.308 z m 0,-90.745 c -24.492,0 -44.391,19.922 -44.391,44.438 0,24.467 19.898,44.339 44.391,44.339 24.422,0 44.344,-19.872 44.344,-44.339 0,-24.517 -19.922,-44.438 -44.344,-44.438 z" /></g><g
       id="g4698"><path
         inkscape:connector-curvature="0"
         id="path4700"
         d="m 253.883,382.979 c -25.551,0 -46.316,-20.766 -46.316,-46.312 0,-25.5 20.766,-46.312 46.316,-46.312 25.547,0 46.312,20.812 46.312,46.312 0,25.547 -20.765,46.312 -46.312,46.312 z m 0,-90.703 c -24.473,0 -44.395,19.969 -44.395,44.391 0,24.469 19.922,44.391 44.395,44.391 24.469,0 44.391,-19.922 44.391,-44.391 -10e-4,-24.422 -19.922,-44.391 -44.391,-44.391 z" /></g><g
       id="g4702"><path
         inkscape:connector-curvature="0"
         id="path4704"
         d="m 255.055,178.421 c 0,1.219 -0.938,2.203 -2.157,2.203 -1.174,0 -2.159,-0.984 -2.159,-2.203 0,-1.172 0.985,-2.156 2.159,-2.156 1.219,0 2.157,0.985 2.157,2.156 z" /></g><g
       id="g4706"><path
         inkscape:connector-curvature="0"
         id="path4708"
         d="m 165.355,243.062 c 0,1.219 -0.961,2.203 -2.18,2.203 -1.172,0 -2.18,-0.984 -2.18,-2.203 0,-1.172 1.008,-2.156 2.18,-2.156 1.22,0 2.18,0.984 2.18,2.156 z" /></g><g
       id="g4710"><path
         inkscape:connector-curvature="0"
         id="path4712"
         d="m 165.355,253.704 c 0,1.219 -0.961,2.155 -2.18,2.155 -1.172,0 -2.18,-0.937 -2.18,-2.155 0,-1.218 1.008,-2.157 2.18,-2.157 1.22,0 2.18,0.938 2.18,2.157 z" /></g><g
       id="g4714"><path
         inkscape:connector-curvature="0"
         id="path4716"
         d="m 339.031,253.704 c 0,1.219 -0.961,2.155 -2.18,2.155 -1.219,0 -2.156,-0.937 -2.156,-2.155 0,-1.218 0.938,-2.157 2.156,-2.157 1.218,0 2.18,0.938 2.18,2.157 z" /></g><g
       id="g4718"><path
         inkscape:connector-curvature="0"
         id="path4720"
         d="m 252.193,331.089 c 0,1.266 -0.963,2.203 -2.182,2.203 -1.195,0 -2.18,-0.938 -2.18,-2.203 0,-1.172 0.984,-2.156 2.18,-2.156 1.219,0 2.182,0.984 2.182,2.156 z" /></g><g
       id="g4722"><path
         inkscape:connector-curvature="0"
         id="path4724"
         d="m 252.193,341.776 c 0,1.172 -0.963,2.156 -2.182,2.156 -1.195,0 -2.18,-0.984 -2.18,-2.156 0,-1.266 0.984,-2.203 2.18,-2.203 1.219,0 2.182,0.938 2.182,2.203 z" /></g><g
       id="g4726"><path
         inkscape:connector-curvature="0"
         id="path4728"
         d="m 259.93,336.386 c 0,1.172 -0.984,2.109 -2.18,2.109 -1.219,0 -2.203,-0.938 -2.203,-2.109 0,-1.266 0.984,-2.203 2.203,-2.203 1.195,0 2.18,0.937 2.18,2.203 z" /></g><g
       id="g4730"><path
         inkscape:connector-curvature="0"
         id="path4732"
         d="m 339.031,243.062 c 0,1.219 -0.961,2.203 -2.18,2.203 -1.219,0 -2.156,-0.984 -2.156,-2.203 0,-1.172 0.938,-2.156 2.156,-2.156 1.218,0 2.18,0.984 2.18,2.156 z" /></g><g
       id="g4734"><path
         inkscape:connector-curvature="0"
         id="path4736"
         d="m 349.648,243.062 c 0,1.219 -0.984,2.203 -2.18,2.203 -1.196,0 -2.156,-0.984 -2.156,-2.203 0,-1.172 0.961,-2.156 2.156,-2.156 1.195,0 2.18,0.984 2.18,2.156 z" /></g><g
       id="g4738"><path
         inkscape:connector-curvature="0"
         id="path4740"
         d="m 349.648,253.704 c 0,1.219 -0.984,2.155 -2.18,2.155 -1.196,0 -2.156,-0.937 -2.156,-2.155 0,-1.218 0.961,-2.157 2.156,-2.157 1.195,0 2.18,0.938 2.18,2.157 z" /></g></g><path
     style="opacity:1;fill:#ff0000;fill-opacity:1;stroke:none;stroke-width:2;stroke-miterlimit:4;stroke-dasharray:none;stroke-opacity:1"
     d="m 245.39543,425.69803 c -12.49644,-2.03744 -23.25263,-7.31661 -31.98111,-15.69643 -16.4961,-15.83717 -22.35977,-39.24573 -15.21786,-60.75168 5.69952,-17.16258 19.39414,-31.04878 36.48845,-36.99892 7.08102,-2.46474 10.46009,-2.99358 19.12768,-2.99358 6.51269,0 8.25206,0.12498 11.46204,0.82364 16.40635,3.57084 30.0878,13.23412 38.82621,27.42314 3.46519,5.62661 6.37054,13.42521 7.60436,20.41172 0.89753,5.08232 0.89753,14.39308 0,19.4754 -2.23416,12.65096 -8.17621,23.65457 -17.71599,32.80684 -7.77252,7.4568 -17.05735,12.36615 -28.0045,14.80739 -5.33721,1.1902 -15.45034,1.53034 -20.58928,0.69248 z m 5.55203,-49.22087 c 0.922,-0.90442 0.92126,-3.25606 -0.001,-4.17863 -0.38179,-0.3818 -1.23458,-0.80226 -1.89508,-0.93436 -1.0095,-0.2019 -1.38238,-0.0587 -2.33949,0.89841 -1.26771,1.2677 -1.43961,2.4724 -0.53672,3.76145 1.15526,1.64936 3.3415,1.85694 4.77259,0.45313 l -1.7e-4,0 z m 10.32848,-7.37595 c 2.40325,-3.05523 -1.61693,-6.55197 -4.56077,-3.96694 -0.92374,0.81116 -0.86962,3.24146 0.0936,4.20472 1.14536,1.14535 3.47679,1.02125 4.46714,-0.23778 z m -10.68829,-6.59734 c 2.08366,-1.87467 0.97209,-5.14974 -1.74784,-5.14974 -1.54927,0 -2.73413,0.81696 -3.05834,2.10874 -0.72884,2.90392 2.61026,5.01667 4.80618,3.041 z"
     id="path6293"
     inkscape:connector-curvature="0" /></svg>